<?xml version="1.0" encoding="UTF-8"?>
<svg version="1.1" viewBox="0 0 2000 2000" width="500" height="500" xmlns="http://www.w3.org/2000/svg">
<path transform="translate(400,518)" d="m0 0 6 1 2 4 1 12 10 17 14 25 13 23 28 49 13 23 12 21 13 23 14 24 15 27 14 24 4 6v2l250 1v-10l2-11-15 3-13 2-20 1h-185l-5-3-10-17-14-25-14-24-16-28-14-24-16-28-30-52-10-17v-4l5 2 13 23 10 17 16 28 15 26 14 24 30 52 16 28 9 15 1 1h209l23-6 3-3 7-21 1-2 4 2 4 5 4 2h5l1-3-4-2-9-10-214-1-7-3-6-8-14-25-14-24-11-19-14-24-16-28-14-24-10-17 1-4 3 1 15 26 14 24 15 26 14 24 16 28 13 22 10 17 3 2h217l4-8 5 3 4 5 3 7h2l1-6-5-6-5-5-1-4 5-10 9-11 5-8 3-1v2h2l-1-4 6-9 7-5 6-7 20-15 15-10 15-8 13-6 21-9 10-2 4-2 9-1 6-3 18-4 10-2 30-2h44l1 58 5 11 1 3 1 45-4 8-9 9h-2v4l5-5 5-2 4-2 2-4 1-1 1-9v-19l-1-28-5-10-1-9v-20l1-29h9l2 1 1 48v84l2 8 12 12 2 4-1 8-7 8-6 7-1 4v9l-6 7-2 1-12 1-1 5v5l15 1 4 4 2 1h26l-2 4-2 2-4 1h-71l-3-4h-3v27l-1 4-2 1h-28l-1-4 24-1-1-26-2-2-2-9-7-8-1-1h-13l-4 1 1 7 12 7 1 3-1 1-109 1-5 6h-21v8l24 2 1 2v7h18l10 1v6l-4 6-9 9h-2l-1 89-16 16h-3l-1-2-1-21-2-10-1-3-1-11-3-5-6-1-5 5v6l1 6-2 3-1 10-1 41h63l7 1 10 9 1 12v36l191-1 4-5 1-26 2-6 10-11 5-1 3 2 1 23 6 2-1 4-4 3-1 6v12h5l1-12 5-5 9-8 1-3v-57l3-5 4-5 5-3 5 1 5 3 1 3 1 19h10l4-2v-45l-3-5-3-3-47-1-9-9-1-2v-44h20l1 37h4v-31l1-6 8-1 1-26h-9v-28l7-8 14-14 4-1-1-3-5 1-8 7-14 14h-2l-1 31-1 1h-18l-1-1-1-39-7-6-4-1h-50l-2-2v-10l13-13 2-6-1-11-5-8-10-9v-134l3-1 5 2 1 94 3 5 6 9 2 5h5l3-4-2-4-10-5-3-3-1-3v-94l6 1v89l8-2 1-5-2-3v-77h6l4 3 1 88 3 1 1-88 7 1 4 3 4-1 4 2-1 5 4-3 8 1 2 2-2 38-1 22-2 12h2v-7l1-4 2-52 3-6 8 1 5 3-5 10v17l1-15 7-8h4l2 4-4 4-1 41-2 12h6l3-2-1-4-3-7v-22l1-13 3-7 3-2 4 2v10l1 6 1-10 1-2 4 1 13 11 3 3 1 7 4-3 9 9 4 6 5 3 3 8 6 4 9 13v2l-10-2 2 9 2 2 6-1 5-1 5 9-1 4-2 4 5 1 4 7 2 4v3l-2 1-1 3 5 1v5l-4 2 1 4 7 5 2 10-5 3-5 1 1 4 6 5 4 4-3 6-2 3 1 7-3 4h-2v4l9 2 10 13 4 5 2 7 6 3 1 2-6 4 1 5h4l3-4h3l4 6 8 10 4 8 4 1-1 5-2 4 5-2 4 1 3 7 8 10 6 12 2 9-3 5 5 2-2 4-5 5-7 5-5-1h-4l-3 2-7 2-8 6-13 8 6 7 4 7 1 7 3 4-1 2-5 1v2l10 1 1 7-1 1-13-1-4-2h-9l1 5 5 3 4-2 15-1 2 2-1 4-7 2h-5l2 2-1 5-4 3-6 1 10 2 4 4 6 7v5l-11 13-6 9-2 9 4 9-1 7 5 5 3 11 2 4-1 6v4l1 1-1 9-7 9-7 6h-2l-2 4-3 3-5 3-7 4-5 1h-5l-1 2h-5l-6-2-1 3-6-1-5-1-5 2-6-2-4-1-3 3-8-2-3 2-4-1-6-1-4 2-3-1h-8l-4 1-4-2-9-1-2 6-8 16-2 3v6l-1 1-11 1-1 7 5 5 2 4 1 6v8l-2 1-6-6 2 8 2 4-1 9-1 1-18 1-39 1-3 7 18 1 44 1 1 1v18l-1 1-56 1-1 29h48l1 1v20l-48 1-1 32h57l1 1v19l-84 1-1-1v-125l-4 1-9 21-19 50-17 43-5 13h-4l-5-12-12-31-16-41-11-28-5-12v-2h26l17 48 7 18h2l9-25 13-36 2-5 23-1v-4l-2-1 3-5h-13-4l-45-1-1-72 3-5h12l5 4 3 4h4l3-6-1-5h-26l-7 3-1 77-4 1-2-1v-79h-1l-1 20v59l-4 1-2-1-1-7v-67l2-9 4-5 7-6 1-3-6 2-8 7-2 3v85l-36 1-1 3-1 18 5 5v7l-5 5h-5l-5-5v-7l3-5v-21l-4-2v-5l4-5 9-2 2-3v-7h-8l-2 3-3 9-3 5-2 6-2 1-10-1v65l4 5-1 6-3 3h-7l-5-5 1-6 2-2 1-9v-4h-10l-5 4-11 20-8 13-3 1 1-6 6-11 10-18 5-8h16v-20l-23 1-2 5-9 15-3 1 1-6 8-15 6-5 4-1h14l4 1-1-21-2-5-6-1-2 4h-19l-11-1-1-2 1-10 6 2 14 4 5 1v-2l-5-1-5-3-6-3-4-8-5-4v-9l7-3v-8l-3-3-6-3-1-1v-5l9-2 1-2v-6l-1-4-4-1-1-7 6-9-2-5-4-5v-7l5-5 1-5-7-7v-4h102l17 17 20 1h16v-24l5-1h45l5 1 1 21 2 2 79 1v-32l1-3-49-1-5-4-8-1-178-1-8-7-4-5-3-1h-40l-2-1v-13l9-4 1-1v-6l-3-3-10-1-5-12-4-9v-2l-40-1 5 10 9 15 8 14 5 9 1 5 1 306 3 3 1 2v6l-5 4-7-1-4-4v-6l5-5v-309l-6-11-16-27-9-16-9-15-8-14-4-5-37-1 2 6 11 18 5 5 7 6 1 4-5 6-4 1-5-2-2-4v-10l-9-16-12-21-13-23-13-22-10-17-1-1-83-1h-158l-6-3-5-8-64-1-1-4h61l-8-16-3-4-62-1v-6h58l-10-18-1-3h-64l-2-1v-4h62l-12-21-4-2h-59l-2-2v-3h60l-8-16-5-7h-64l-1-5 61-1-8-16-4-6h-60l-4-1v-4l2-1 57-2-10-18-2-2-64-1-1-5 1-1 37-1 23 1-6-12-6-10-2-1-61 1-1-1v-5l2-1h58l-10-17-4-5h-64l-4 5-7-1-4-5 1-7 2-2h8l3 2 8 1 58 1 7 8 15 26 10 17 8 14 12 20 15 26 14 24 13 22 15 26 13 22 13 23 4 6 5 1h235l6 2 7 10 6 10 36-1-8-17-1-7v-56l7-8 15-13 13-10 5-2v-11l-3 1h-244l-5-3-4-5-15-27-16-28-14-25-14-24-15-27-14-24-15-27-12-21-14-25-16-27-2-5-6-2-5-5-2-4 6-7zm841 163-10 7-2 1 1 5 3 2 4-1 5-12zm-177 1-3 5v7h4l2-11zm23 1-2 3v9l2 1h6l1-7-2-5zm-217 1-5 4 1 5 7 1 2-1-1-7zm346 21-9 6-3 4 1 4h8l3-9 2-5zm-66 1m86 0-3 3v4l-4 2 4 4h6l-1-8-1-5zm-199 1v11l1 1h6v-10l-2-2zm51 1-3 5v6l6 2 3-2v-7l-3-4zm-31 1 2 5 3 5h7l1-9-1-1zm-188 1-1 2 5 3 2-1v-3zm49 0-4 3 1 5 5 1 3-3-1-6zm-60 3v2l4-2zm153 13-1 2 2 4 1 10h6l1-4-3-7-5-5zm28 4-1 2v8l2 1 2-1 1-8zm24 2-2 1v9h4l1-6 3-1v-2zm119 0v3h4v-2zm20 0 2 4 4 2-1-5zm-237 1 1 4 4-1 1-3zm61 15 2 5 8 12 7 1 3-3v-5l-11-4-7-6zm150 3 2 5 3 10 4 1 4-3-1-5-10-8zm-330 1-6 1v1h7zm167 4-1 1v8l1 1h6l1-1v-8l-1-1zm47 1-1 2 2 6 5 1 2-2v-6l-2-1zm26 0-2 3 1 5 7 1 3-3-1-5zm25 0-3 5-2 6-5 6 4-2 5-4 8-3 1-1v-5l-4-2zm-120 1v6l4 1 1-1v-5zm-50 5v2h2v-2zm195 17-4 4 1 4 3 2h6l1-2v-7l-1-1zm26 0-3 1-1 6 2 3 5 1 3-3v-6l-2-2zm-342 1 2 2h3v-2zm364 2 2 4 4-2-1-2zm59 14 1 4 4 3 2-1-4-6zm-254 7-1 1v10h6l2-3v-6l-2-2zm261 0 6 10 1 1h6l-4-6-6-4zm-287 2-2 3 1 5 5 1 1-5v-2-2zm-23 1-3 2 1 5 6 1-1-4-2 1 1-5zm-26 4v3l4 1-1-4zm-108 9-14 11-14 12-4 5v45l37 1 1-5-1-40-3-1v-28zm427 8-1 1v9l5 1 4-4-1-5-2-2zm-410 1-7 3-1 4 3 3h8l1-1v-7zm432 1-2 5 2 2 3-7zm-22 22-1 5 3 3h4l1-4-2-4zm21 1-1 1v6l4 3 5-2v-6l-2-2zm-421 24v16h2v-16zm-15 2-1 1v7l2 2 7-1 1-1v-6l-3-2zm488 2-1 3 4 4 4 2h6l-1-2-6-3-2-4zm-532 18v12l3 6 2 2h30l10-1 9-8v-5l-2-2h-9l-3-3-3-1zm438 3 1 8 2-1-1-7zm-427 21-3 1 2 5h14l10-1h4l4-1v-3l-15-1zm547 8-2 3h6v-3zm-588 4 2 5 13 23 8 13 1 1h35l2-1-1-5-9-17-5-7-20-1-5-10-3-1zm28 0-1 4 1 2 11-1 1-2-2-3zm16 0 2 5 1 1h24l2-1v-5zm7 12 2 5 14 24 1 1h30l3-1-1-6-12-21-2-2zm45 3 2 5 4 6 5-3 1-5-9-3zm21 11-6 5 1 5 3 5 3 10h1l1-10 3-5-1-7zm-12 14-1 1v6l8 4-1-6-4-5zm454 1-2 1-1 4 1 2h6v-2h2l-1-4zm23 2-1 4h3l4-3 1 2 1-3zm-510 4 1 4 8 14 1 1 37-1-1-5-4-7-11-2-4-3zm504 10-2 2h10l-2-2zm-26 1m10 7-3 3 2 5 3 3h4l4-7-4-4zm-55 1-1 1 1 9 7 1 3-2 1-4-2-4-2-1zm34-1-5 2-1 4 2 4 6 1 2-1-1-3h-5l-1-4 6 2 1-4zm-452 5-1 3 6 9 36-1-1-5-4-6zm486 2 1 4 3 4 5 1 2-2-9-7zm-434 10v1l30 1h14l11 2 2 7 1 4h2l1-5v-7l-3-3zm42 6-5 2-1 5 2 5 6 2 5-2 1-1v-8l-1-2zm-35 1-2 2 1 7 3 4 7-1 3-4 1-5-3-3zm372 6m8 2m1 1 5 5 4 1-5-5zm65 0-2 2h6l-1-2zm-35 1 5 5h2l-1-3zm16 1m-21 5 2 4h2l2 12 3 3 5-2 2-3-1-6-13-8zm25 0 3 5 2 10 4 4 7-8-1-4-4-3-9-4zm-42 5-2 2v6l4 6 7-1 1-8-4-4zm-356 2-4 4 2 8 1 1h9l2-2v-8l-2-3zm334 5-5 4 2 5 3 3 7-1 1-4-2-7zm-12 30v6h3l1-2 3-1v-2zm-35 13-5 3-1 6 4 4h6l2-2v-9l-3-2zm74 3-7 4 1 4 2 2 7-1 1-1v-6zm18 4-1 2h2zm-216 17-2 1v10l1 1h8l3-2v-8l-3-2zm165 0-2 2v10l5 1 5-3v-6l-3-4zm-335 1-1 1 1 9 2 1h7l3-3-1-7-1-1zm24 0-2 2v6l3 3 5-2 4-4-1-4-1-1zm118 0-1 1v10l2 1h10l1-10-2-2zm148 0-5 11-11 12-1 1-16 1 2 2 15 1 5-3 11-10 9-3 1-6-2-6zm78 0-3 2v11l5-1 5-4-2-6zm21 3-2 5 4-1v-4zm-73 9v11l2-1-1-10zm-314 11-3 1-2 7 4 5h8l3-2v-8l-1-2zm144 0v3h3v-3zm-120 1-4 2-1 6 1 3 2 1h8l3-5v-5l-3-2zm26-1-4 1-1 2v9l1 1h9l2-1 1-8-2-3zm315 1-2 3v7l6 2 1-4v-7zm23 0-3 2v6l4 4h3l2-3 5-2-1-3-8-4zm-228 1 1 3h8l3-2-1-1zm32 20-3 3-1 6 3 5 6 1 5-1v-11l-3-3zm27 0-5 3-2 6 7 9 4-2 6-7-1-4-4-4zm49 0-7 4v6l6 5 5-1 2-4v-8l-2-2zm-26 1-5 5 1 7 4 3h7l3-3v-8l-4-4zm-169 1-4 2-1 5 3 6h9l2-2v-8l-1-2zm48 1-3 2v11l2 1h8l1-1v-9l-2-3zm26 0-3 7 2 4h9l2-2v-7l-5-2zm22 0-3 2v8l1 1h10l1-1v-8l-1-2zm-34 17v2h3v-2zm106 4-4 4v6l5 5 8-1 2-4-1-7-3-3zm-217 3-3 3-1 5 1 3 8 1 5-1v-8l-2-3zm23 0-2 3-3 12 14-3 2-4-1-7-2-1zm24 0-1 1v11h12v-10l-1-2zm49 0-2 2v10l7 1 5-1v-10l-2-2zm24 0-3 1-1 6 2 4h10v-9l-4-2zm49 0-1 1 1 8 1 1h7v-9zm-24 1-2 1 1 6 4-2-1 4h6v-9zm-129 15m24 0-2 4 3 1 1-5zm-45 1v3l21-2v-1zm117 0v2l3 1 8-2v-1zm-142 1v8l1 5h1v-13zm31 6-4 4-2 9h13l2-2v-7l-2-3zm47 0-2 5v7l1 2 8-1 3-2v-8l-2-3zm49 0-3 3v7l1 2 9 1 2-1v-9l-3-3zm120 0-4 4 1 6 6 9 4-5 2-2 1-5-2-6-1-1zm-96 0-4 1-1 4 2 7h10l1-1v-6l-3-4zm-198 169-3 2 1 4 5-1-1-5z" fill="#F8F8F8"/>
<path transform="translate(932,1019)" d="m0 0 6 1 2 2 2 11-1 9v18l3 8 10 10 2 1 12 1h181l1 2 8 1h48l9-6 11-11 4-6 1-3 1-11 3-5 8-6 2-1 13-1 1 3-1 2-9 1-6 4-2 3-1 16-9 11-8 8-2 5-1 18 1 28v24l-4 2h-20v2l-6 2-1 4-7 1-3 2v6l1 2-1 6-5-1-3-2-2-4-2-7-2-2h-6l-4 4 1 7 3 2 6 1 4 2 3 2 9 1 8 3 2 3-11 1-1 7 5 5 2 4 1 6v8l-2 1-6-6 2 8 2 4-1 9-1 1-18 1-39 1-3 7 18 1 44 1 1 1v18l-1 1-56 1-1 29h48l1 1v20l-48 1-1 32h57l1 1v19l-84 1-1-1v-125l-4 1-9 21-19 50-17 43-5 13h-4l-5-12-12-31-16-41-11-28-5-12v-2h26l17 48 7 18h2l9-25 13-36 2-5 23-1v-4l-2-1 3-5h-13-4l-45-1-1-72 3-5h12l5 4 3 4h4l3-6-1-5h-26l-7 3-1 77-4 1-2-1v-79h-1l-1 20v59l-4 1-2-1-1-7v-67l2-9 4-5 7-6 1-3-6 2-8 7-2 3v85l-36 1-1 3-1 18 5 5v7l-5 5h-5l-5-5v-7l3-5v-21l-4-2v-5l4-5 9-2 2-3v-7h-8l-2 3-3 9-3 5-2 6-2 1-10-1v65l4 5-1 6-3 3h-7l-5-5 1-6 2-2 1-9v-4h-10l-5 4-11 20-8 13-3 1 1-6 6-11 10-18 5-8h16v-20l-23 1-2 5-9 15-3 1 1-6 8-15 6-5 4-1h14l4 1-1-21-2-5-6-1-2 4h-19l-11-1-1-2 1-10 6 2 14 4 5 1v-2l-5-1-5-3-6-3-4-8-5-4v-9l7-3v-8l-3-3-6-3-1-1v-5l9-2 1-2v-6l-1-4-4-1-1-7 6-9-2-5-4-5v-7l5-5 1-5-7-7v-4h102l17 17 20 1h16v-24l5-1h45l5 1 1 21 2 2 79 1v-32l1-3-49-1-5-4-8-1-178-1-8-7-4-5-3-1h-40l-2-1v-13l9-4 1-1v-6l-3-3-10-1-4-9 2-4 3-1 2 3 7-1 3-6 1-9h9l7 1 2 4-1 5 2 5 5 1 5-2 1-12zm-9 28-4 4 2 8 1 1h9l2-2v-8l-2-3zm287 48-5 3-1 6 4 4h6l2-2v-9l-3-2zm-124 24-2 1v10l1 1h8l3-2v-8l-3-2zm-170 1-1 1 1 9 2 1h7l3-3-1-7-1-1zm24 0-2 2v6l3 3 5-2 4-4-1-4-1-1zm118 0-1 1v10l2 1h10l1-10-2-2zm148 0-5 11-11 12-1 1-16 1 2 2 15 1 5-3 11-10 9-3 1-6-2-6zm-288 23-3 1-2 7 4 5h8l3-2v-8l-1-2zm144 0v3h3v-3zm-120 1-4 2-1 6 1 3 2 1h8l3-5v-5l-3-2zm26-1-4 1-1 2v9l1 1h9l2-1 1-8-2-3zm110 2 1 3h8l3-2-1-1zm32 20-3 3-1 6 3 5 6 1 5-1v-11l-3-3zm27 0-5 3-2 6 7 9 4-2 6-7-1-4-4-4zm-146 2-4 2-1 5 3 6h9l2-2v-8l-1-2zm48 1-3 2v11l2 1h8l1-1v-9l-2-3zm26 0-3 7 2 4h9l2-2v-7l-5-2zm22 0-3 2v8l1 1h10l1-1v-8l-1-2zm-34 17v2h3v-2zm106 4-4 4v6l5 5 8-1 2-4-1-7-3-3zm-217 3-3 3-1 5 1 3 8 1 5-1v-8l-2-3zm23 0-2 3-3 12 14-3 2-4-1-7-2-1zm24 0-1 1v11h12v-10l-1-2zm49 0-2 2v10l7 1 5-1v-10l-2-2zm24 0-3 1-1 6 2 4h10v-9l-4-2zm49 0-1 1 1 8 1 1h7v-9zm-24 1-2 1 1 6 4-2-1 4h6v-9zm-129 15m24 0-2 4 3 1 1-5zm-45 1v3l21-2v-1zm117 0v2l3 1 8-2v-1zm-142 1v8l1 5h1v-13zm31 6-4 4-2 9h13l2-2v-7l-2-3zm47 0-2 5v7l1 2 8-1 3-2v-8l-2-3zm49 0-3 3v7l1 2 9 1 2-1v-9l-3-3zm120 0-4 4 1 6 6 9 4-5 2-2 1-5-2-6-1-1zm-96 0-4 1-1 4 2 7h10l1-1v-6l-3-4z" fill="#F5F5F5"/>
<path transform="translate(1386,1131)" d="m0 0h59l5 2-5 9-10 14-24 34-13 18-10 14-13 18-12 17-12 16-7 11 39 54 12 17 14 19 1 4h-70l-8-10-8-12-12-17-4-4-8 10-14 20-13 18-12 17-8 11-12 17-6 7h-68l1-5 10-14 14-20 12-17 13-18 12-17 13-18 24-34 6-8-6-9-11-15-14-20-13-18-12-17-10-13v-3l50-1 20 1 7 9 12 17 12 16h3l12-17 13-18 24-34 21-30z" fill="#FCFCFC"/>
<path transform="translate(1116,604)" d="m0 0 7 2 1 94 3 5 6 9 2 5h5l3-4-2-4-10-5-3-3-1-3v-94l6 1v89l8-2 1-5-2-3v-77h6l4 3 1 88 3 1 1-88 7 1 4 3 4-1 4 2-1 5 4-3 8 1 2 2-2 38-1 22-2 12h2v-7l1-4 2-52 3-6 8 1 5 3-5 10v17l1-15 7-8h4l2 4-4 4-1 41-2 12h6l3-2-1-4-3-7v-22l1-13 3-7 3-2 4 2v10l1 6 1-10 1-2 4 1 13 11 3 3 1 7 4-3 9 9 4 6 5 3 3 8 6 4 9 13v2l-10-2 2 9 2 2 6-1 5-1 5 9-1 4-2 4 5 1 4 7 2 4v3l-2 1-1 3 5 1v5l-4 2 1 4 7 5 2 10-5 3-5 1 1 4 6 5 4 4-3 6-2 3 1 7-3 4h-2v4l9 2 10 13 4 5 2 7 6 3 1 2-6 4 1 5h4l3-4h3l4 6 8 10 4 9-1 4-6 5-5 2h-22l-4-2-3-2-5-5v-2h-4v-2l9 2-1 2 6 2v-4l-5-2-7-7-2-5h-20l-15 1-4 3h-17l-4-4-2-5-5-1v2l-9-1-1-2v-6h2v6h7l2-6 5-1 1-5 7-10h2l2-7-2-2 1-1h6l3 3-1 6-1 2-9 4-6 7-1 4 1 1v9l1 2 3 1h14l4-2 7-1h-5l3-3-6-2h-5l-2-5 6 1 35 1 7 2 8 8 2 1-3-10-2-8-3-1-14-1-6-3-4-4-7-1-4-3v-6l2-2 6-1 3 1 3 11 6 4h6l-2-2v-9l5-6 5-1h-5l-4-1-3 1-7-2-27-1-7-3-1-4 5-1-5-5-6-4 2 2v4l-4-2-8-9-5-3h-5l-8 6h-2l2-4 6-5h2l-1-3-5 1-8 7-14 14h-2l-1 31-1 1h-18l-1-1-1-39-7-6-4-1h-50l-2-2v-10l13-13 2-6-1-11-5-8-10-9v-134zm125 77-10 7-2 1 1 5 3 2 4-1 5-12zm-25 24-9 6-3 4 1 4h8l3-9 2-5zm-66 1m86 0-3 3v4l-4 2 4 4h6l-1-8-1-5zm-54 26v3h4v-2zm20 0 2 4 4 2-1-5zm-26 19 2 5 3 10 4 1 4-3-1-5-10-8zm-40 29-4 4 1 4 3 2h6l1-2v-7l-1-1zm26 0-3 1-1 6 2 3 5 1 3-3v-6l-2-2zm22 3 2 4 4-2-1-2zm59 14 1 4 4 3 2-1-4-6z" fill="#F7F7F7"/>
<path transform="translate(1257,878)" d="m0 0h7l2 2 3 10 3 3 1 3v30l4-2h9l1 2v9l27 2 14 4-4-8 1-5 5-4 9-4 8 1-2-2h-7l-7-1-7 7-9 7h-13l-9-7-7-8-7-6-1-7 5-3 6 2 1 5v6l2 5 2-4-2-6v-20l-3-1-9 1-2-5 1-4 3-2 6 1 5 5 3 5 1 23 7 7 6-1 8-7 6-6 3-1 19-1 10-3 7-6 1-5h2l3 7 8 10 6 12 2 9-3 5 5 2-2 4-5 5-7 5-5-1h-4l-3 2-7 2-8 6-13 8 6 7 4 7 1 7 3 4-1 2-5 1v2l10 1 1 7-1 1-13-1-4-2h-9l1 5 5 3 4-2 15-1 2 2-1 4-7 2h-5l2 2-1 5-4 3-6 1 10 2 4 4 6 7v5l-11 13-6 9-2 9 4 9-1 7 5 5 3 11 2 4-1 6v4l1 1-1 9-7 9-7 6h-2l-2 4-3 3-5 3-7 4-5 1h-5l-1 2h-5l-6-2-1 3-6-1-5-1-5 2-6-2-4-1-3 3-8-2-3 2-4-1-6-1-4 2-3-1h-8l-4 1-4-2-9-1-2 6-8 16-2 3v6l-4-1v-1l-10-2-7-2-9-2 5-4 4-4 1 5 7 3v-6l5 2h5l1-4v-13l3-2h3v-2l6-1h16l1-1v-24l-1-31 1-15 3-6 10-10 6-8 1-16 5-6 4-2h9v-4l-13 1-6 4-4 2-2 5-1 11-3 6-9 10-10 9-4 2h-48l-8-1-1-3-55 1h-126l-12-1-8-7-6-7-2-6v-18l1-9 2-6 1-6 2 4v38l7 8 5 4 191 1 7 2 23 1h20l9-2 13-13 5-8 2-13 6-8 7-6 3-1 30-1-1-3h-30l-10 2-10 10-3 8-1 10-6 8-9 9-2 1-13 1h-12l-23-1-2-5-52-1h-133l-11-1-2-1-2-8-1-45-2-5-6-1-73-1v4h-2l-2-5-2-1v-2h61l25 1 5 5 1 3 1 41 1 10 10 1h181l5 3 1 2 41 1 7-2 8-8 3-6 1-11 4-7 5-6 9-7h41l7 7 6 1 1-1-16-12-4-10-3-9-8-8-1-11v-41l-3-1v-8l5-3 6 1 3 5v-33l-3-5-10-6v-6zm75 53-2 3h6v-3zm-29 45-2 1-1 4 1 2h6v-2h2l-1-4zm23 2-1 4h3l4-3 1 2 1-3zm-6 14-2 2h10l-2-2zm-26 1m10 7-3 3 2 5 3 3h4l4-7-4-4zm-21 0-5 2-1 4 2 4 6 1 2-1-1-3h-5l-1-4 6 2 1-4zm34 7 1 4 3 4 5 1 2-2-9-7zm-55 23m8 2m1 1 5 5 4 1-5-5zm65 0-2 2h6l-1-2zm-35 1 5 5h2l-1-3zm16 1m-21 5 2 4h2l2 12 3 3 5-2 2-3-1-6-13-8zm25 0 3 5 2 10 4 4 7-8-1-4-4-3-9-4zm-42 5-2 2v6l4 6 7-1 1-8-4-4zm-22 7-5 4 2 5 3 3 7-1 1-4-2-7zm-12 30v6h3l1-2 3-1v-2zm39 16-7 4 1 4 2 2 7-1 1-1v-6zm18 4-1 2h2zm-51 17-2 2v10l5 1 5-3v-6l-3-4zm33 1-3 2v11l5-1 5-4-2-6zm21 3-2 5 4-1v-4zm-73 9v11l2-1-1-10zm51 12-2 3v7l6 2 1-4v-7zm23 0-3 2v6l4 4h3l2-3 5-2-1-3-8-4z" fill="#595959"/>
<path transform="translate(932,1019)" d="m0 0 6 1 2 2 2 11-1 9v18l3 8 10 10 2 1 12 1h181l1 2 8 1h48l9-6 11-11 4-6 1-3 1-11 3-5 8-6 2-1 13-1 1 3-1 2-9 1-6 4-2 3-1 16-9 11-8 8-2 5-1 18v17l-2 3-4-6-1 2h-7l-3 10-11 12-11 1h-117l-2-4h-40v4l-7 4-7 8v85l-36 1-1 3-1 18 5 5v7l-5 5h-5l-5-5v-7l3-5v-21l-4-2v-5l4-5 9-2 2-3v-7h-8l-2 3-3 9-3 5-2 6-2 1-10-1v65l4 5-1 6-3 3h-7l-5-5 1-6 2-2 1-9v-4h-10l-5 4-11 20-8 13-3 1 1-6 6-11 10-18 5-8h16v-20l-23 1-2 5-9 15-3 1 1-6 8-15 6-5 4-1h14l4 1-1-21-2-5-6-1-2 4h-19l-11-1-1-2 1-10 6 2 14 4 5 1v-2l-5-1-5-3-6-3-4-8-5-4v-9l7-3v-8l-3-3-6-3-1-1v-5l9-2 1-2v-6l-1-4-4-1-1-7 6-9-2-5-4-5v-7l5-5 1-5-7-7v-4h102l17 17 20 1h16v-24l5-1h45l5 1 1 21 2 2 79 1v-32l1-3-49-1-5-4-8-1-178-1-8-7-4-5-3-1h-40l-2-1v-13l9-4 1-1v-6l-3-3-10-1-4-9 2-4 3-1 2 3 7-1 3-6 1-9h9l7 1 2 4-1 5 2 5 5 1 5-2 1-12zm-9 28-4 4 2 8 1 1h9l2-2v-8l-2-3zm287 48-5 3-1 6 4 4h6l2-2v-9l-3-2zm-124 24-2 1v10l1 1h8l3-2v-8l-3-2zm-170 1-1 1 1 9 2 1h7l3-3-1-7-1-1zm24 0-2 2v6l3 3 5-2 4-4-1-4-1-1zm118 0-1 1v10l2 1h10l1-10-2-2zm-140 23-3 1-2 7 4 5h8l3-2v-8l-1-2zm24 1-4 2-1 6 1 3 2 1h8l3-5v-5l-3-2zm26-1-4 1-1 2v9l1 1h9l2-1 1-8-2-3zm23 24-4 2-1 5 3 6h9l2-2v-8l-1-2zm-49 25-3 3-1 5 1 3 8 1 5-1v-8l-2-3zm23 0-2 3-3 12 14-3 2-4-1-7-2-1zm24 0-1 1v11h12v-10l-1-2zm-31 16m24 0-2 4 3 1 1-5zm-45 1v3l21-2v-1zm-25 1v8l1 5h1v-13zm31 6-4 4-2 9h13l2-2v-7l-2-3zm47 0-2 5v7l1 2 8-1 3-2v-8l-2-3z" fill="#F7F7F7"/>
<path transform="translate(1231,796)" d="m0 0h5l8 6 7 8 2 1 1-2 5 10 6 2 27 1 8 2 5-1 3 1 4 1-3 1-5 3-2 3v9l2 3h-7l-7-5-2-8v-3l-9 1-1 1v6l3 2 7 1 7 6 3 1 14 1 4 2 3 13 2 3-1 3-8-7-3-3-6-1-35-1-7-1-1-1h-6v6l5 2 2-1 1-5 2 1 3 1 6 1 3 2-3 2h5l1 2-9 1-4 2h-14l-4-2-1-6v-5l-1-3 6-8 5-4 6-1 1-8-2-2h-6l-2 6 1 3h-2l-2 5-4 5-2 5-5 1-1 2-1-3h-5v6l5 1-4 1-3-1v-6h-2l1 8 9 1v-2h5l2 2 2 7h19l4-3 21-1 14 1 6 8 6 5 2 1v4l-7-1v-3l-7-2v7l5 2 11 3h22l8-4 3-3 1-4 4 1-1 5-2 4 5-2 3 1-2 6-9 7-8 2-19 1-5 3-10 10-5 2-4-1-6-5-1-2-1-23-5-8-4-2-6 1-1 4 1 4 11-1 2 2v20l2 8-1 2h-2l-3-5v-9l-1-2-5-1-4 2 1 7 10 9 5 6 7 5h13l11-9 5-5 14 1 2 1v2h-8l-12 6-2 3 1 5 2 3v3l-8-1-6-2-24-2-3-1-1-11-9 1-4 1-1-33-3-1-3-7-2-6h-7l-2 1v6l10 6 3 5v34l-4-4v-2l-9 1-1 1v8l2 1 1 4v37l1 11 9 9 4 14 2 4 16 12-2 2-6-1-7-7h-41l-7 6h-2l-2 4-5 6-1 3-1 11-4 7-9 9-6 1-41-1-3-4-3-1-59-1v-1h8v-2l6-1 33-1 9-1-170-1v-1l182-1 4-5 1-26 2-6 10-11 5-1 3 2 1 23 6 2-1 4-4 3-1 6v12h5l1-12 5-5 9-8 1-3v-57l3-5 4-5 5-3 5 1 5 3 1 3 1 19h10l4-2v-45l-3-5-3-3-47-1-9-9-1-2v-44h20l1 37h4v-31l1-6 8-1 1-26h-9v-28l7-8 7-7 4-1zm2 32-1 1v9l5 1 4-4-1-5-2-2zm-21 74 1 8 2-1-1-7zm37 99-1 1 1 9 7 1 3-2 1-4-2-4-2-1z" fill="#F7F7F7"/>
<path transform="translate(266,668)" d="m0 0h8l3 2 8 1 58 1 7 8 15 26 10 17 8 14 12 20 15 26 14 24 13 22 15 26 13 22 13 23 4 6 5 1h235l6 2 7 10 6 10 36-1-8-17-1-7v-56l7-8 15-13 13-10 6-4 7-8 8-5h5l2 10v20l-3 2-1-25-1-2-5 1-9 8-3 6-7 4-11 9-13 11-3 4-1 45h37l-1-44-2-1 1-3 15-1h8l7-5 7-8 5 1 2 2-1 6-1 1-10 2-6 5-6 2h-11l-4 2-1 2v9l2 9 1 4h10l6 2 1 5v10l3-1v23l-1 3-5 4-3 1 3 10-1 2h-3l-2-3 1-8-8 7-1 4h-28l6 12v2l3 1 15 26 3 2h-2l1 3 2 1 6 11 6 10v2l3 1 2 6 3 4h36l-3-8 1-4h73l7 2 2 5 1 45 1 8 20 1h138l38 1 3 3 1 2 23 1h12l13-1 8-7 7-8 1-2 2-14 4-6 9-9 10-2h20l10 1 2 4-31 1-7 4-7 8-2 6-1 9-7 10-12 12-9 2h-20l-23-1-7-2-191-1-8-7-5-6v-39l-2-6h-16l6 2 1 2v6l-2-4h-12l-1-2-16-2v5h-13l-1 1v8l-4 2-5-10v-2l-40-1 5 10 9 15 8 14 5 9 1 5 1 306 3 3 1 2v6l-5 4-7-1-4-4v-6l5-5v-309l-6-11-16-27-9-16-9-15-8-14-4-5-37-1 2 6 11 18 5 5 7 6 1 4-5 6-4 1-5-2-2-4v-10l-9-16-12-21-13-23-13-22-10-17-1-1-83-1h-158l-6-3-5-8-64-1-1-4h61l-8-16-3-4-62-1v-6h58l-10-18-1-3h-64l-2-1v-4h62l-12-21-4-2h-59l-2-2v-3h60l-8-16-5-7h-64l-1-5 61-1-8-16-4-6h-60l-4-1v-4l2-1 57-2-10-18-2-2-64-1-1-5 1-1 37-1 23 1-6-12-6-10-2-1-61 1-1-1v-5l2-1h58l-10-17-4-5h-64l-4 5-7-1-4-5 1-7zm552 211-1 1v7l2 2 7-1 1-1v-6l-3-2zm-44 20v12l3 6 2 2h30l10-1 9-8v-5l-2-2h-9l-3-3-3-1zm11 24-3 1 2 5h14l10-1h4l4-1v-3l-15-1zm-41 12 2 5 13 23 8 13 1 1h35l2-1-1-5-9-17-5-7-20-1-5-10-3-1zm28 0-1 4 1 2 11-1 1-2-2-3zm93 450-3 2 1 4 5-1-1-5z" fill="#FBFBFB"/>
<path transform="translate(1301,1027)" d="m0 0 7 1 5 5 2 3-5 1 1 1h6l9-3 8-1 11-1 5 5v5l-11 13-6 9-2 9 4 9-1 7 5 5 3 11 2 4-1 6v4l1 1-1 9-7 9-7 6h-2l-2 4-3 3-5 3-7 4-5 1h-5l-1 2h-5l-6-2-1 3-6-1-5-1-5 2-6-2-4-1-3 3-8-2-3 2-4-1-5-2 2-2-4-3-1-4v-47l4-6 7-6 6-3 3-1v-7l-3 1v-4h-6l-4 6 2 1 1-2v5l-8 6-5 5v-14l5-6 8-7 6-8v-4l-9 12-11 11-1 3-1 56-3-1-2-14v-41l4-6 10-10 5-7 1-16 4-1v-2l6-1 1-3h13l5 2v2l4 1 1 2v6l3 5h7v-8l-3-3-4-2 16-3 3 2 3 12 4 2 4-4-1-6-11-6-1-4 2-2v-3l2 1 4 4 2 1-1-3 1-1-7-4zm20 13 3 5 2 10 4 4 7-8-1-4-4-3-9-4zm-64 12-5 4 2 5 3 3 7-1 1-4-2-7zm27 46-7 4 1 4 2 2 7-1 1-1v-6zm18 4-1 2h2zm-51 17-2 2v10l5 1 5-3v-6l-3-4zm33 1-3 2v11l5-1 5-4-2-6zm21 3-2 5 4-1v-4zm-22 21-2 3v7l6 2 1-4v-7zm23 0-3 2v6l4 4h3l2-3 5-2-1-3-8-4z" fill="#ADADAD"/>
<path transform="translate(1032,604)" d="m0 0h19v67l-3 1v26l1 3 2 1v2l4 2 2 2-1 3-4-1 1 2v38l5 5 1 5-5-4-4-4-1-4-1-28-3-9-3-3-7-2-3-3h-1v14l4 7 4 5v11h3l1-6 4 2 1 4-6 4-5-2-7-6v13l-5-1v-4l-5 1-3 1-8-4-1-3v18h4l1 8 1 2-5-1-1 6 92 1v3h-88l-5-2-2-2-1-9-1-52-5-5-5-3-8-2 1 4-2 6v38l2 5 1 1 10 1 2 2-1 3h2v4h-3l-2-6-4-1 1 6 4 1v2h-7l-6-11-3-5-1-31-1-7-9-11-3-15-5-6v-2l-4-2-4-6-1-6v-15l-4-7-9-10-2-1v-2l14-7 14-5 7-2 12-2 6-3 18-4 10-2zm-21 122-1 2 2 4 1 10h6l1-4-3-7-5-5z" fill="#5B5B5B"/>
<path transform="translate(1048,603)" d="m0 0h44l1 58 5 11 1 3 1 45-4 8-9 9h-2v4l5-5 5-2 4-2 2-4 1-1 1-9v-19l-1-28-5-10-1-9v-20l1-29h9l2 1 1 48v84l2 8 12 12-1 3-7-1-5 1-3 9-4 5 2-1-1 3-3 2-43 1h-21l-24-1v-1h87v-3h-89l-3-1v-7l6 1 5-1v-8h-11l-1-4v-15l2 1v3l9 3 5-2 2 1 3 7 7 11 1 3h7l2-2 1-5-9-2-7-6-1-4v-11l8 6 5 2 5-3v-4l-4-2-5-5-7-9-1-3v-14l2-1 5 5 1 11 6 1v-9l3 3 2 7 1 28 2 6 5 3 2 2h1l2 6 5-1 1-6h-10v-3l-4-2-2-3v-40l6 1 4 7 7 1v-9l-12-1-6-5v-2l-3-1-1-3v-26l4-1v-67zm16 79-3 5v7h4l2-11zm23 1-2 3v9l2 1h6l1-7-2-5zm1 25-3 5v6l6 2 3-2v-7l-3-4zm-25 24-2 1v9h4l1-6 3-1v-2zm23 25-2 3 1 5 7 1 3-3-1-5z" fill="#F3F3F3"/>
<path transform="translate(932,1019)" d="m0 0 6 1 2 2 2 11-1 9v18l3 8 10 10 2 1 12 1h181l1 2 8 1h48l9-6 11-11 4-6 1-3 1-11 3-5 8-6 2-1 13-1 1 3-1 2-9 1-6 4-2 3-1 16-9 11-8 8-2 5-1 18v17l-2 3-4-6-1 2h-7l-3 10-11 12-11 1h-110l-7-2-1-3-2-2h3l1-2-4-2h8v-10-3-1l-13-1-3-2v-3h2v-5l1-1h45l5 1 1 21 2 2 79 1v-32l1-3-49-1-5-4-8-1-178-1-8-7-4-5-3-1h-40l-2-1v-13l9-4 1-1v-6l-3-3-10-1-4-9 2-4 3-1 2 3 7-1 3-6 1-9h9l7 1 2 4-1 5 2 5 5 1 5-2 1-12zm-9 28-4 4 2 8 1 1h9l2-2v-8l-2-3zm287 48-5 3-1 6 4 4h6l2-2v-9l-3-2zm-124 24-2 1v10l1 1h8l3-2v-8l-3-2z" fill="#F8F8F8"/>
<path transform="translate(1502,1252)" d="m0 0 54 1 12 4 6 4 7 7 5 12 1 5v11l-3 10-5 8-8 7-7 3 2 6 10 21 12 26v2l-8 1-18-1-8-16-12-26-4-8-13-1v51l-4 1h-19l-2-5v-68l2-3h45l8-2 5-4 2-4-1-9-5-6-4-2-6-1-46-1 1-22z" fill="#FCFCFC"/>
<path transform="translate(1127,1249)" d="m0 0 13 1 44 1 1 1v18l-1 1-56 1-1 29h48l1 1v20l-48 1-1 32h57l1 1v19l-84 1-1-1v-124l25-1z" fill="#FBFBFB"/>
<path transform="translate(400,518)" d="m0 0 6 1 2 4 1 12 10 17 14 25 13 23 28 49 13 23 12 21 13 23 14 24 15 27 14 24 4 6v2l250 1v-10l2-11-15 3-13 2-20 1h-185l-5-3-10-17-14-25-14-24-16-28-14-24-16-28-30-52-10-17v-4l5 2 13 23 10 17 16 28 15 26 14 24 30 52 16 28 9 15 1 1h209l23-6 4-4 4 2 9 1 10 4 5 5 8 1 2 3-1 5-3 2-4-1-7-9-4-3-4 1-3 1 2 3v5l-4 3-6 3-5 5-4 8-1-4-3 1h-244l-5-3-4-5-15-27-16-28-14-25-14-24-15-27-14-24-15-27-12-21-14-25-16-27-2-5-6-2-5-5-2-4 6-7zm420 263 2 2h3v-2z" fill="#B3B3B3"/>
<path transform="translate(1092,1250)" d="m0 0h2l1 3-11 27-18 47-15 38-5 13h-4l-5-12-12-31-16-41-11-28-5-12v-2h26l17 48 7 18h2l9-25 13-36 2-5 21-1z" fill="#FBFBFB"/>
<path transform="translate(1697,1252)" d="m0 0h2l10 25 18 46 18 47 3 9-4 1-21-1-9-24-15-42-3-3-2 11-19 53-3 5-3 1-21-1 1-5 17-44 16-41 14-36z" fill="#FCFCFC"/>
<path transform="translate(1380,913)" d="m0 0 2 3 3 8-1 4-2 4 5 2-2 4-5 5-7 5-5-1h-4l-3 2-7 2-8 6-13 8 6 7 4 7 1 7 3 4-1 2-53-1-14-1-4-2-2-6v-49l1 3 25 3 18 2 15 2 7-1 10-9 6-6h8l6-3 9-10zm-77 63-2 1-1 4 1 2h6v-2h2l-1-4zm23 2-1 4h3l4-3 1 2 1-3z" fill="#B0B0B0"/>
<path transform="translate(898 1e3)" d="m0 0h22l28 1 3 1 1 4 1 45 1 8 20 1h138l38 1 3 3 1 2 23 1h12l13-1 8-7 7-8 1-2 2-14 4-6 9-9 10-2h20l10 1 2 4-31 1-7 4-7 8-2 6-1 9-7 10-12 12-9 2h-20l-23-1-7-2-191-1-8-7-5-6v-39l-2-6-6-1-1-2h-61l-3-5v-4z" fill="#F5F5F5"/>
<path transform="translate(430,936)" d="m0 0h248l21 1 5 4 8 13 15 26 14 24 15 26 16 28 14 24 10 17 3 7 1 30v184l4 4v6l-5 5-7-1-4-5v-5l4-5v-215l-7-14-10-17-28-49-17-29-15-26-13-22-4-3-241-2-27-1-1-4z" fill="#BCBCBC"/>
<path transform="translate(266,668)" d="m0 0h8l3 2 8 1 58 1 7 8 15 26 10 17 8 14 12 20 15 26 14 24 13 22 15 26 13 22 5 9-1 2-4-1-6-10-1-1-62-1v-6h58l-10-18-1-3h-64l-2-1v-4h62l-12-21-4-2h-59l-2-2v-3h60l-8-16-5-7h-64l-1-5 61-1-8-16-4-6h-60l-4-1v-4l2-1 57-2-10-18-2-2-64-1-1-5 1-1 37-1 23 1-6-12-6-10-2-1-61 1-1-1v-5l2-1h58l-10-17-4-5h-64l-4 5-7-1-4-5 1-7z" fill="#F5F5F5"/>
<path transform="translate(210,519)" d="m0 0 7 1 3 5 1 11 14 25 11 19h64l90 1 5 5 6 9 13 23 14 24 13 23 10 17 9 16 14 24 48 84 10 17 2 1h128l4-4h6l5 3 1 7-5 6h-7l-4-4-129-1-5-5-8-13-13-23-15-26-16-28-13-23-12-21-30-52-16-28-11-19-5-5-152-1-3-1-13-22-13-23-1-3-7-2-6-6v-6zm0 5-1 4 2 3 5 1-1-7zm6 8m461 293-1 4 2 3 3-1 1-6z" fill="#B5B5B5"/>
<path transform="translate(1609,1255)" d="m0 0h26v124l-2 1h-23l-2-1v-123z" fill="#FCFCFC"/>
<path transform="translate(1155,613)" d="m0 0 7 1 4 3 4-1 4 2-1 5 4-3 8 1 2 2-2 38-1 22-2 12h2v-7l1-2 5 1 1 1v5l-5 1 3 11-1 3 3 6-1 5-1 1h-8l-2-2v-6l2-3-9-10v-2h-4l1 6 4 2 2 7v9l1 6 5 4 1 3 7 1 2 4-4 5-6-1-6-10-4-3-1-5-1-16-2-4-3-1-1-4-5-1 5 9 2 27 6 8 2 1v2h2l2 5-2 1-8-7-7-7-1-4-1-23-3-8z" fill="#AFAFAF"/>
<path transform="translate(1263,814)" d="m0 0h42l-2 1v4l9 2 10 13 4 5 2 7 6 3 1 2-6 4 1 5h4l3-4h3l4 6 8 10 4 9-1 4-6 5-5 2h-22l-4-2-3-2-5-5v-2h-4v-2l9 2-1 2 6 2v-4l-5-2-7-7-2-5h-20l-15 1-4 3h-17l-4-4-2-5-5-1v2l-9-1-1-2v-6h2v6h7l2-6 5-1 1-5 7-10h2l2-7-2-2 1-1h6l3 3-1 6-1 2-9 4-6 7-1 4 1 1v9l1 2 3 1h14l4-2 7-1h-5l3-3-6-2h-5l-2-5 6 1 35 1 7 2 8 8 2 1-3-10-2-8-3-1-14-1-6-3-4-4-7-1-4-3v-6l2-2 6-1 3 1 3 11 6 4h6l-2-2v-9l5-6 5-1h-5l-4-1-3 1-7-2-27-1-7-3-1-4z" fill="#5A5A5A"/>
<path transform="translate(1281,1088)" d="m0 0h12l-1 4-5 3 4 1 3-4 37-1 3-1 5 5 3 11 2 4-1 6v4l1 1-1 9-7 9-7 6h-2l-2 4-3 3-5 3h-3l2-2v-3-2l-5-2-5-1-2 1v6l3 4-8-1-5-8 1-7 5-6 5-2 8-1v-8l-1-4-6-1 1 5-3-1v-2l-3 10-7 8-3 6h-3v-2h-5l-5 5h-2v-6l5-6v-2l8-4 1-3-1-3 2-6 3-1h21l12 2-3-3-5-1h-32l-5-3-1-3 6-2v-6l-3-1-6 3 1 4 1 7-8 5h-2l-2 8h-1v-13l2-13 7-8zm21 14-1 2h2z" fill="#F3F3F3"/>
<path transform="translate(1022,1138)" d="m0 0h40l2 5-2 2 3 1v-4h126l-2 3-14 1 15 2 1 2-3 1h-124l8 14v4h-7l-3 3v-2h-3l1-7-1-3h-26l-7 3-1 77-4 1-2-1v-79h-1l-1 20v59l-4 1-2-1-1-7v-67l2-9 4-5 7-6 1-3-3-1zm56 7 1 3h8l3-2-1-1z" fill="#B1B1B1"/>
<path transform="translate(930,633)" d="m0 0 4 2 12 12 1 2v18l2 8 9 10 5 6 1 6-2 10v3l1-1h9l2 3v7l-3 2h-5l-5-5h-2l1 9 6 11 8-2v6l-3 3h-5l-3-4-4-8-4-7v-21l-20-1-2-1 10 9 1 2 1 29v15l4 2v6l-3 3-6-1-3-4 2-5 1-1v-41l-1-4-3-1-4-5v-2h-2l-2-2 2 6 1 8v52l5 5 7 2h7l8-3 4-5 2-10 4-1 5 2 1 6-3 4-7 3-7 6-3 1h-15l-7-3-4-3-1-3-1-58-1-11-1-2-1-35-2-10-8-9 3-3zm11 130v2h2v-2z" fill="#5A5A5A"/>
<path transform="translate(203,640)" d="m0 0h8l4 3 147 1 5 5 8 13 13 23 14 24 30 52 32 56 15 26 13 23 7 11v2h170l10-6 6 3 3 4-1 6-6 4-5-1-7-5h-76l-58 1h-33l-6-3-8-13-13-23-11-19-14-24-14-25-10-17-32-56-14-24-14-25-5-6-146-1-2 4-2 2-7-1-4-4v-7zm475 238-2 5 5 2 2-4-3-3z" fill="#FBFBFB"/>
<path transform="translate(1097,1179)" d="m0 0 4 2 3 5 1 19 3 7 5 5v2h2l7 8 5 4 5 2 3 3 2 1v3h4v-2l-3-1-5-4-11-12-9-9-6-12-1-5 3 1v2h2l7 14 6 7 8 7 5 5 11 4-4-7-14-13-3-5-1-21-5-5v-4l4 2 4 4 1 3 1 18 2 5 8 9 8 7 6 7 5 1 3-1 2-5 2-2 1-5-1-7 2-4h-9l-9-3-10-9-4-5-1-3v-9h4v8l3 6 8 8 3 2 16 2-1-6 3 1 6 7 3 3v2l5-1 1 4-3 3-4-4 2 8 2 4-1 9-1 1-18 1-39 1-3 7h5l-2 2-24 1-5-1-2 1v-2h-2v-3l-2-1 3-5-2-1 4-1-11-12-9-9-8-6-2-1v-2l-4-1h8l7 6v2l4 2 21 21h2l-4-6-9-10-18-18-1-5 5 2 7 8 7 6v2l2-1-8-10v-2l-4-2-4-5-4-8-5-2-10-1v-2l13-1 7 6 4 8 7 1 3-4v5l-1 2 5 1 2 5 5 3-1-2-1-14v-7l-1-5-3-1z" fill="#5A5A5A"/>
<path transform="translate(269,611)" d="m0 0 7 2 2 2 105 1 4 5 16 28 9 15 17 29 16 27 14 24 26 44 28 48 7 11 6 2h52l94 1 1-3 4-3h5l6 7v5l-3 1v2l-2 1h-7l-4-2v-2l-151-1-5-5-6-9-15-26-9-15-15-26-9-15-15-26-15-25-15-26-16-27-14-24-6-10h-70l-32 1-6 5-6-1-4-5 1-6 2-3zm408 239-1 4 2 2 5-1-2-5z" fill="#B5B5B5"/>
<path transform="translate(474,991)" d="m0 0h173l7 1 5 6 14 25 14 24 14 25 28 49 7 12 1 143 4 6-1 7-4 3-7-1-5-6 1-5 5-4v-142l-9-17-14-24-12-22-14-24-10-18-12-21-7-10-185-1-4-2v-3zm258 289-2 2 1 4 4 1 1-5-1-2z" fill="#C6C6C6"/>
<path transform="translate(1033,1163)" d="m0 0h12l5 4 2 3v12l-1 3h2v2h3v-3h7v1h-6v2h10l5 2 4 6 3 6 5 4 9 12-1 2-2-1v-2l-4-2-6-6v-2l-4-2v-2l-4-1 2 5 24 24 6 9-3 1-5-4-7-8-16-16-4-3h-15v2l11-1 6 4 12 11 10 10 3 5-5 1h-11-4l-45-1-1-72zm6 5-3 2v11l2 1h8l1-1v-9l-2-3zm-1 24-2 2v10l7 1 5-1v-10l-2-2zm24 0-3 1-1 6 2 4h10v-9l-4-2zm-23 24-3 3v7l1 2 9 1 2-1v-9l-3-3zm24 0-4 1-1 4 2 7h10l1-1v-6l-3-4z" fill="#F5F5F5"/>
<path transform="translate(1068,603)" d="m0 0h24l1 61h-4l1 13 1 6-4 1-3 3v-9l-1-13-1-7v-50l-2 3v86l10 10-3 1-6-6-3-1v2h2l-1 22-8 13-2 5-2 1h-6l-2-2h6v-2l4-4 4-8 2-3 1-10-1-9-5-3h-12l-6-7-1-6h-2l2-9 2-4 3-2 1-4 1-67h5v71l-8 5-2 9 4 7 1 4h9l-1-4-6 1 1-3h4l1-11-3-4v-3l4-1v-70z" fill="#AFAFAF"/>
<path transform="translate(824,800)" d="m0 0h5l2 10v20l-3 2-1-25-1-2-5 1-9 8-3 6-7 4-11 9-13 11-3 4-1 45h37l-1-44-2-1 1-3 15-1h8l7-5 7-8 5 1 2 2-1 6-1 1-10 2-6 5-6 2h-11l-4 2-1 2v9l2 9 1 4h10l6 2 1 5v10l3-1v23l-1 3-5 4-3 1 3 10-1 2h-3l-2-3 1-8-8 7-1 4h-28l2 5-4-4-4-8-3-5-7-9-3-3-1-7v-56l7-8 15-13 13-10 6-4 7-8zm-6 79-1 1v7l2 2 7-1 1-1v-6l-3-2zm-44 20v12l3 6 2 2h30l10-1 9-8v-5l-2-2h-9l-3-3-3-1zm11 24-3 1 2 5h14l10-1h4l4-1v-3l-15-1z" fill="#B2B2B2"/>
<path transform="translate(1327,1079)" d="m0 0h6l2 4-1 6-3 3h-37l-2 5-6-1 3-3 3-2 1-3-12 1-10 9-2 5-1 10v10l2-5 8-5h2l-1-6 4 3 1 2 5 1h30l6 2 3 3-3 1-13-2h-21l-1 6-6-2-2 1v13l-5 6-1 6 4-2 3-4 5 1v2l3-1 4-8 5-5 3-10 2-1-1 7-1 2 4-2-1-8 6 1 2 4v8l-1 1-11 2-5 4-2 6 1 5 3 5 11 2 2-4h5l-4 6-8 2h-5l-1 2h-5l-6-2-1 3-6-1-5-1-5 2-6-2-5-2v-13l1-11 1-2 1-23 1-9v-3l-7 6-2 11h-3v-12l21-21 10-2zm-44 65-2 3v7l6 2 1-4v-7z" fill="#595959"/>
<path transform="translate(1267,932)" d="m0 0h1v56l4 2 6 4h14l2-1 13 3 2 4-7 1 1 6 3 3 4 1 2-5h3l6 8 5 1v-2l-9-7-7-9v-2l4-1h15l1 3h2l1-2 8-1 10 2 1 7-1 1-13-1-4-2h-9l1 5 5 3 4-2 15-1 2 2-1 4-7 2h-5l2 2-1 5-4 3-6 1 10 2 4 4v1h-28l-6-6-12-1 2 3h-7l-4-5-8-5-8-7-3-7-1-8-9-9v-49l6-4zm16 68-5 2-1 4 2 4 6 1 2-1-1-3h-5l-1-4 6 2 1-4z" fill="#AFAFAF"/>
<path transform="translate(1018,605)" d="m0 0h14l-2 1v37l-1 12-5-1-1-2v-46h-2v38l1 10 4 4 1 5v26h-2l-7-8-22-22-5-4-1-10v-30l-5-1 2-2 15-4z" fill="#F4F4F4"/>
<path transform="translate(885,994)" d="m0 0 64 1 7 1 10 9 1 12v36l185 1v1l-16 2-38 1v2l19 1v1h-149l-10-1-1-1-1-10-1-41-3-6-2-1-64-2z" fill="#F7F7F7"/>
<path transform="translate(507,564)" d="m0 0 3 1 15 26 14 24 15 26 14 24 16 28 13 22 10 17 3 2 216 1 6 9 12 6v3l10-2 7-1 6 5-1 5-4 2-26-2-7-1-1-2 10-1 1-3-4-2-9-10-214-1-7-3-6-8-14-25-14-24-11-19-14-24-16-28-14-24-10-17z" fill="#BDBDBD"/>
<path transform="translate(1438,1298)" d="m0 0h24l1 1v80l-4 1h-20l-2-3v-78z" fill="#FCFCFC"/>
<path transform="translate(451,963)" d="m0 0h192l32 1 5 4 12 19 14 23 13 21 12 20 8 12 10 7 2 2-1 4-5 6-5 1-6-9 1-6-12-21-13-21-14-23-16-26-4-5v-2l-231-1-1-5z" fill="#BEBEBE"/>
<path transform="translate(1127,606)" d="m0 0 6 1v89l8-2 1-5-2-3v-77h6l4 3 1 88 1 4-2 4h1v18l-6 9-4 8-1 1-7-1-2-4 1-5 10-4 2-3-2-2-7-1v-2l-4-2-3-6 1-4 4 4 2 5h5l3-4-2-4-10-5-3-3-1-3z" fill="#B2B2B2"/>
<path transform="translate(467,887)" d="m0 0h4l10 18 6 2h235l6 2 7 10 8 14 7 1v1h-6l16 28 8 13 3 2h-2l1 4 3 1 2 6 11 18 5 5 7 6 1 4-5 6-4 1-5-2-2-4v-10l-9-16-12-21-13-23-13-22-10-17-1-1-83-1h-158l-6-3-5-8-64-1-1-4h61l-3-8z" fill="#FBFBFB"/>
<path transform="translate(1032,604)" d="m0 0h19v67l-3 1v26l1 3 2 1v2l4 2 2 2-1 3-4-1 1 2v38l5 5 1 5-5-4-4-4-1-4-1-28-3-9-3-3-4-2-6-7v-40l1-38 1-16z" fill="#595959"/>
<path transform="translate(1216,638)" d="m0 0 5 2v10l1 6 1-10 1-2 4 1 13 11 3 3 1 7 4-3 3 3v24l-3 7-10 8h-3l-1 3-2-1 2-4h2l-1-3-5-1-1-3-4 1-2-1-1 7-3 3h-2v-10l-1 2-10 1-3-1v-2h-3v-10l3-12h2v15l-1 6h6l3-2-1-4-3-7v-22l1-13 3-7zm25 43-10 7-2 1 1 5 3 2 4-1 5-12z" fill="#B1B1B1"/>
<path transform="translate(453,519)" d="m0 0 5 1 4 6-1 10 7 10 16 28 13 22 15 26 16 28 9 15 30 52 12 21 11 19 4 2h77l5-5 5-1 5 3 2 4v5l-6 5-7-1-3-2v-2l-29-1h-52l-5-3-14-25-45-78-11-19-14-24-12-21-14-24-17-29-4-4-6-4-3-4 1-6zm225 240v4l2 1 1-4z" fill="#F8F8F8"/>
<path transform="translate(1032,605)" d="m0 0h2v16l-1 38v40l6 7h-4l-3-3h-1v14l4 7 4 5v11h3l1-6 4 2 1 4-6 4-5-2-7-6v13l-5-1-2-8h-2v3h-2v-8h2v2h2l-2-9-2-6-1-28-2-7-22-22-7-6-3-5-1-31-1-7 2-2 6 1 1 30 1 10 12 11 21 21v2h2l-1-26-2-7-3-2-1-10v-36l1-2h2l1 48 5 1v-15l1-34z" fill="#5A5A5A"/>
<path transform="translate(500,1049)" d="m0 0h47l64 1 8 1 5 6 14 25 16 27 15 26 14 24 5 9v59l5 7-1 7-4 3h-6l-6-5v-6l5-5v-61l-12-22-14-24-16-28-14-24-7-11-1-1-11-1-106-1-1-4zm184 184-2 2 1 4h4l1-4-1-2z" fill="#B7B7B7"/>
<path transform="translate(1380,913)" d="m0 0 2 4-3 5-8 7-8 6-5-1-6 4-7 7-3 2-9 1h-30l-1 11 3 1v5l-10 3-7 5-2 2v-2l-6 1-5 2 1 7 6 3h4l3-10 4-4 4-2h6l1 3-3 7h-2l1 9-2 1h-19l-4-2-2-6v-49l1 3 25 3 18 2 15 2 7-1 10-9 6-6h8l6-3 9-10z" fill="#F7F7F7"/>
<path transform="translate(787,1087)" d="m0 0 3 1 9 18 1 30v184l4 4v6l-5 5-7-1-4-5v-5l4-5v-215l-6-12z" fill="#B1B1B1"/>
<path transform="translate(1048,603)" d="m0 0h20v72l-5 1 2 6-3 5-1 9h5l1 4h-9l-4-7-2-6 2-7 8-5 1-71h-5v67l-2 5-3 2-4 12h2l3 8 5 4h11l6 4 1 13-2 8-4 7-4 6-1-4 3-3h-8v2l-6 1-2-2 1-16h2l1-2h2l1-2 2 4 7 1v-9l-12-1-6-5v-2l-3-1-1-3v-26l4-1v-67z" fill="#F7F7F7"/>
<path transform="translate(1413,1252)" d="m0 0 75 1v21l-1 1h-74l-1-1v-21z" fill="#FCFCFC"/>
<path transform="translate(1256,1063)" d="m0 0 2 2 11 3 3 4-2 4-11 11h-2l-2 4-4 2-1 3-7 6-2 4-1 20 1 27 5 4 5 1-7-5-1-3v-22l2-1v2h4v2l8-1 1-1v-6l-1-2v-16l3-1v-4l6-4-2 14-1 23-1 2-1 11v14l-3 3-8-2-3 2-4-1-5-2 2-2-4-3-1-4v-47l4-6 7-6 6-3 3-1v-7l-3 1v-4h-6l-4 6 2 1 1-2v5l-8 6-5 5v-14l5-6 8-7 6-7z" fill="#eee"/>
<path transform="translate(1162,617)" d="m0 0h2v10h2l1-3h7l1 1 1 71 6 6 1-1-2-1-1-7-2-1 1-5 3-1 1 5-1 4h2v-7l1-2 5 1 1 1v5l-5 1 3 11-1 3 3 6-1 5-1 1h-8l-2-2v-6l2-3-9-10v-2h-4l1 6 4 2 2 7v9l1 6 5 4 1 3 7 1 2 4-4 5-6-1-6-10-4-3-1-5-1-16-2-4-3-1-2-4z" fill="#595959"/>
<path transform="translate(517,520)" d="m0 0h5l5 6v5l-1 4 10 17 13 23 12 21 15 26 14 25 11 19 16 28 7 13h48l4-4h6l5 4 1 6-5 6h-7l-5-5-49-1-5-8-13-24-10-17-13-23-14-24-14-25-12-21-15-26-5-7-8-4-2-2 1-7zm161 187-2 2 1 4 4 1 1-6z" fill="#FAFAFA"/>
<path transform="translate(902,1180)" d="m0 0 4 1 9 9 2 5 1 8 1 5 8-7 5-5 4-1-2 4-6 5-3 4v9h2l2-3 7-3-2 4-2 8 1 6 11-1 3 3-10 2-3 2-6 2-2 4h-19l-11-1-1-2 1-10 6 2 14 4 5 1v-2l-5-1-5-3-6-3-4-8-5-4v-9l7-3v-8l-3-3-6-3-1-1v-5zm10 30v8l1 5h1v-13z" fill="#5A5A5A"/>
<path transform="translate(477,1020)" d="m0 0h156l5 5 14 25 28 48 7 11 8 5 2 2v5l-5 6h-6l-5-7 1-4v-4l-12-21-15-26-16-28-7-10-1-1-152-1-3-3z" fill="#BCBCBC"/>
<path transform="translate(400,518)" d="m0 0 6 1 2 4 1 12 10 17 14 25 13 23 28 49 13 23 12 21 13 23 14 24 15 27 3 6 2 6 2 3-1 4-4-5-15-27-12-21-13-23-32-56-14-25-14-24-12-22-14-24-12-20v-2l-6-2-5-5-2-4 6-7z" fill="#FAFAFA"/>
<path transform="translate(210,519)" d="m0 0 7 1 3 5 1 11 14 25 11 19h64l90 1 5 5 5 7-1 2-3-3 1 3h-2l-4-6-2-1-152-1-3-1-13-22-13-23-1-3-7-2-6-6v-6zm0 5-1 4 2 3 5 1-1-7z" fill="#B4B4B4"/>
<path transform="translate(1121,1180)" d="m0 0 4 2 4 4 1 3 1 18 2 5 8 9 8 7 6 7 5 1 3-1 2-5 2-2 1-5-1-7 2-4h-9l-9-3-10-9-4-5-1-3v-9h4v8l3 6 8 8 3 2 16 2-1-6 3 1 6 7 3 3v2l5-1 1 4-3 3-4-4 2 8 2 4-1 9-1 1-18 1h-36l-1-10 5 2 3 3 2 1v3h4v-2l-3-1-5-4-11-12-9-9-6-12-1-5 3 1v2h2l7 14 6 7 8 7 5 5 11 4-4-7-14-13-3-5-1-21-5-5z" fill="#BABABA"/>
<path transform="translate(1033,1163)" d="m0 0h12l5 4 2 3v17h-6l-3-2-8-1v9l1 1v9l-2 6v6l3 1v12h11l-1-11h3l1 2 1 9 2 3v5h2v3l3-1h14l3 1-1-8-6-1-1-2 2-1v-6l-2-3-7-2 1-4-2-1 5-1 6 4 12 11 10 10 3 5-5 1h-11-4l-45-1-1-72zm6 5-3 2v11l2 1h8l1-1v-9l-2-3z" fill="#AEAEAE"/>
<path transform="translate(269,611)" d="m0 0 7 2 2 2 105 1 4 5 16 28 9 15 17 29 13 22 3 8 7 12 5 10-4-1-9-16-13-22-17-29-14-24-13-22-6-10h-70l-32 1-6 5-6-1-4-5 1-6 2-3z" fill="#FAFAFA"/>
<path transform="translate(1097,603)" d="m0 0h9l2 1 1 48v90l-3 1-4-12v-4l1-9v-19l-1-28-5-10-1-9v-20z" fill="#BCBCBC"/>
<path transform="translate(1190,626)" d="m0 0 8 1 5 3-5 10v39l1 2 1 41 2 6 1 4-2 1-4-3v-2h-2v-2l-4-1-2-2-5-1-2-2 7-1 1-5-3-7 1-3-2-10 4-1v-5l-5-2 1-35 1-19z" fill="#B3B3B3"/>
<path transform="translate(1314,994)" d="m0 0h15l1 3h2l1-2 8-1 10 2 1 7-1 1-13-1-4-2h-9l1 5 5 3 4-2 15-1 2 2-1 4-7 2h-5l2 2-1 5-4 3-6 1 2 2-4 1h-9l-7-6-2-1-16-1-7-8-1-4h-5l-1-5 6 1 2-1 4 8 10 3-1-7 4 2 5 2 2-5h3l6 8 5 1v-2l-9-7-7-9v-2z" fill="#BCBCBC"/>
<path transform="translate(906,646)" d="m0 0 5 2 5 4 3 6 1 40 1 3 3 2v3l-3 1 2 1-1 3-7 1v-6l-6-2v22l4 5 11 3 1 5-3 4-6-1-7-10-4-5-1-23v-34l-2-9-5-7v-2z" fill="#AFAFAF"/>
<path transform="translate(1263,814)" d="m0 0h42l-2 1v4l9 2 10 13 4 5 2 7 6 3 1 2-6 4 1 5h4l3-4h3l4 7-9 5h-10l-4-7-2-12-3-3-12-2-3-3v-9l5-6 5-1h-5l-4-1-3 1-7-2-27-1-7-3-1-4z" fill="#B0B0B0"/>
<path transform="translate(935,1233)" d="m0 0 5 3 5 2-1 2v65l4 5-1 6-3 3h-7l-5-5 1-6 2-2 1-9v-4h-10l-5 4-11 20-8 13-3 1 1-6 6-11 10-18 5-8h16v-20l-23 1-2 5-9 15-3 1 1-6 8-15 6-5 4-1h14l4 1-1-21-2-5-5-2v-1z" fill="#B1B1B1"/>
<path transform="translate(449,563)" d="m0 0 5 2 13 23 10 17 16 28 15 26 14 24 30 52 16 28 7 12v5l-5-5-4-5-16-28-15-26-16-28-14-24-16-28-30-52-10-17z" fill="#F4F4F4"/>
<path transform="translate(976,1054)" d="m0 0h176v1l-16 2-38 1v2l19 1v1h-149v-1l20-1v-1h6v-2l-17-1z" fill="#AFAFAF"/>
<path transform="translate(1065,1142)" d="m0 0h126l-2 3-14 1 15 2 1 2-3 1h-122l-3-3zm13 3 1 3h8l3-2-1-1z" fill="#5C5C5C"/>
<path transform="translate(884,662)" d="m0 0 1 4v29l6 7v2l4 2 4 4v8l-2 2-7-1-2-4 1-5 2-3-9-9-1-2-1-24-2 1-2-1-1 11-2 3-3-1-4 3v4l7 1h3l3 8 4 7 2 15 6 9 7 3 1 6-2 1h-6l-5-9-5-6-3-20-2-3-16-2-3-2v-2l-2 1v7l4 5-2 4-6-5-4-7 2-4 5-8 3-1v2h2l-1-4 6-9 7-5 6-7z" fill="#A5A5A5"/>
<path transform="translate(1282,878)" d="m0 0 6 1 5 5 3 5 1 23 7 7 6-1 8-7 6-6 3-1 19-1 10-3 7-6 1-5h2l3 7-1 4-11 11-6 3h-21l-6 4-10 9-9 1-7-4-5-6 1-3-2-6v-20l-3-1-9 1-2-5 1-4z" fill="#595959"/>
<path transform="translate(203,640)" d="m0 0h8l4 3 147 1 4 3v2h-2v2l-3-1-146-1-2 4-2 2-7-1-4-4v-7z" fill="#BFBFBF"/>
<path transform="translate(405,590)" d="m0 0 6 5 13 23 14 24 13 23 10 17 9 16 14 24 32 56 1 7-2 2-10-18-14-24-14-25-15-26-16-28-15-26-16-28-9-16z" fill="#FBFBFB"/>
<path transform="translate(730,1127)" d="m0 0 4 2 2 4 1 143 4 6-1 7-4 3-7-1-5-6 1-5 5-4v-142l-1-6zm2 153-2 2 1 4 4 1 1-5-1-2z" fill="#C2C2C2"/>
<path transform="translate(1081,606)" d="m0 0 2 4v51l1 7 1 17v10l8 1v-7l-1-5-2-1-1-6v-13h5l4 8 1 3 1 45-3 6-10-4 6-3v-7l-7-8-7-7v-86z" fill="#AEAEAE"/>
<path transform="translate(870 1e3)" d="m0 0h73l7 2-2 1-31-1h-45l3 8h62l3 2-3 1-24 1h14l6 2 1 2v6l-2-4h-12l-1-2-16-2v5h-13l-1 1v8l-4 2-5-10v-2l-29-1-13-1-2-5 7-1h29l-3-8z" fill="#B3B3B3"/>
<path transform="translate(494,872)" d="m0 0 5 5v2h170l10-6 6 3 3 4-1 6-6 4-5-1-7-5h-76l-58 1h-33l-6-3-4-6 1-3zm184 6-2 5 5 2 2-4-3-3z" fill="#FCFCFC"/>
<path transform="translate(1254,670)" d="m0 0 4 2 4 6 5 3 3 8 6 4 9 13v2l-5-1-3-1-3 1-4-3v-2l-5-2-2-2-5 1-5 5h-2l-1 19-4 6-24 24-6 7-4 7-3 1-5-4v-5l10-5 29-29 2-4 1-16 5-5 4-6 1-4v-7z" fill="#595959"/>
<path transform="translate(1329,962)" d="m0 0 5 1-1 3 5 5 5 8 1 7 3 4-1 2-53-1v-1l7-1-1-9 2 1v2h6v-2h2l1-4 11-9zm-3 16-1 4h3l4-3 1 2 1-3z" fill="#B1B1B1"/>
<path transform="translate(507,564)" d="m0 0 3 1 15 26 14 24 15 26 14 24 16 28 13 22 9 15-1 3-3 1-16-28-15-26-11-19-14-24-16-28-14-24-10-17z" fill="#FBFBFB"/>
<path transform="translate(516,1080)" d="m0 0h88l6 7 15 27 12 21 9 15 8 4 2 3-1 6-4 4h-6l-5-5v-5l2-4-6-9-14-26-10-17-8-14-2-2-9-1-77-1z" fill="#FCFCFC"/>
<path transform="translate(912,642)" d="m0 0 7 6 4 7 1 7 1 35 1 2 1 17v49h-1l-1-23-2-1 1-6-11-3-5-6v-22h3l5 2-1 11 5 1 2-2 1-8-3-1 4-1-1-3-3-2-1-3-1-40-3-6-8-6z" fill="#E7E7E7"/>
<path transform="translate(1032,604)" d="m0 0h9v58l2 5 1 4v28l-3-1-1-3-1-34h-3l1 38 5 5 2 5-6-2-2-4-4-4v-40l1-38 1-16z" fill="#F6F6F6"/>
<path transform="translate(975,615)" d="m0 0h8l1 8 1 31 6 8 10 9 16 16 2 7 1 28 3 8v7h-2v-2l-3-1-4-6-1-10v-20l-2-8-29-29-2-4-1-27-2-9-6-3 1-2z" fill="#E5E5E5"/>
<path transform="translate(1103,1183)" d="m0 0 3 3 1 4 12 1 5 3v3h2l-1-3 1-5h1l1 21 6 8 12 11 2 3v3l-11-3-16-16-6-7-2-5-1-2h7v-9h-8l-1 5-4-3 3 7 6 11 5 5v2l4 2 10 11 8 3-1 4h-4l-2-3-6-5-2-1-1 2-7-8-4-4v-2h-2l-3-4v-2l-3-1-3-7z" fill="#B2B2B2"/>
<path transform="translate(1224,644)" d="m0 0 4 1 13 11 3 3 1 7 4-3-1 4-4 1-2 9-2 4-14 7-2 2-1-5-1-29 1-10z" fill="#F4F4F4"/>
<path transform="translate(1079,603)" d="m0 0h13l1 61h-4l1 13 1 6-4 1-3 3v-9l-1-13-1-7v-50l-2 2z" fill="#A6A6A6"/>
<path transform="translate(1058,604)" d="m0 0h5v71l-8 5-2 9 4 7 1 4h9l-1-4-6 1 1-3h4l1-9h3l4 6-1 3-5-2 3 7 6 3 3 4v19l-8 13-2 5-2 1h-6l-2-2h6v-2l4-4 4-8 2-3 1-10-1-9-5-3h-12l-6-7-1-6h-2l2-9 2-4 3-2 1-4z" fill="#5B5B5B"/>
<path transform="translate(500,1049)" d="m0 0h47l64 1 8 1 5 6-1 2-5-1-1-1-11-1-106-1-1-4z" fill="#B2B2B2"/>
<path transform="translate(1301,1027)" d="m0 0 7 1 5 5 2 3-5 1 1 1h6l9-3 8-1 11-1 5 5v5l-7 8-6-1-5-5-10-4 3 4 1 7-3 5h-8v-7h-2l-1-3-6-1-8-5v-3l2-2v-3l2 1 4 4 2 1-1-3 1-1-7-4z" fill="#AEAEAE"/>
<path transform="translate(981,1214)" d="m0 0h2v5l4-1v-3h2v15h3l-2 6v2l4 1-2 1-20 1-1 3-1 18 5 5v7l-5 5h-5l-5-5v-7l3-5v-22l5-2 4-5h2l2-4 3-3z" fill="#B0B0B0"/>
<path transform="translate(1057,603)" d="m0 0h11v72l-5 1 2 6-3 5-1 9h5l1 4h-9l-4-7-2-6 2-7 8-5 1-71h-5v67l-2 4v-56l1-14-2-1z" fill="#AFAFAF"/>
<path transform="translate(1265,1096)" d="m0 0 1 3-1 2-1 9-1 23-1 2-2 24-7-1-6-3-3-2-1-3v-22l2-1v2h4v2l8-1 1-1v-6l-1-2v-16l3-1v-4z" fill="#F1F1F1"/>
<path transform="translate(1369,897)" d="m0 0 2 1-1 5-9 10-11 8 2 1v2l-15-1 2-3 8 1-2-2h-7l-7-1-7 7-9 7h-13l-9-7-7-8-7-6-1-7 5-3 6 2 1 5v6l2 5 4 2 6 5 9 1 7-4 8-8 4-2h21l8-5 9-9z" fill="#595959"/>
<path transform="translate(1319,1113)" d="m0 0h6l10 6 3 4-1 7-4 3-7-1-2-4v-8l-11-1-1 2v-2l-6-1 1 5-3-1v-2l-3 10-7 8-3 6h-3v-2h-5l-5 5h-2v-6l5-6v-2l8-4 1-3-1-3 2-6 3-1h21l12 2-3-3-5-1z" fill="#AFAFAF"/>
<path transform="translate(1251,1043)" d="m0 0m-3 1h3l-2 4v4l5-5h12l2 2v6l-5-1v-2l-8 2-2 4 3 4-1 3-4-1v-4l-9 12-11 11-1 3-1 56-3-1-2-14v-41l4-6 10-10 5-7 1-16 4-1z" fill="#AEAEAE"/>
<path transform="translate(1177,620)" d="m0 0 8 1 2 2-2 38-1 22-1 5-1-2-3 3-3-1v-67z" fill="#F7F7F7"/>
<path transform="translate(1273,1076)" d="m0 0h58l1 3-5 1-44 1-10 2-20 20v10l2-2 1-7 4-3v3l-2 1-1 15h-6l-1 1-1 8-2 1-3-3v-20l5-7 8-7z" fill="#AFAFAF"/>
<path transform="translate(1333,1090)" d="m0 0 5 3 4 13 2 4-1 6-2 1-4-7-8-7-4-2h-11l-3-3h-9l-1 10 8 1-4 3h-16l3-11 3-8 6-1 30-1z" fill="#F4F4F4"/>
<path transform="translate(638,1032)" d="m0 0 5 2 16 28 15 26 12 20 5 3 6 5v5l-5 6h-6l-5-7 1-4v-4l-12-21-15-26-16-28-2-4z" fill="#FBFBFB"/>
<path transform="translate(932,648)" d="m0 0h4l4 5v31l-3 4 1 5 3 3 6-1 2-3-1-5-3-3-1-6 2-4 3 6 9 10 1 7-7 2h-13l-8-4-1-33 1-13z" fill="#B6B6B6"/>
<path transform="translate(1273,1072)" d="m0 0h57l1 4-58 1-8 8-7 8-5 4-7 8-1 2-1 21v25l4 2 4 3-2 1-5-2-5-4-1-33 1-14 4-6 6-5 10-10z" fill="#595959"/>
<path transform="translate(1127,606)" d="m0 0 6 1v98l-4-1-2-4z" fill="#AFAFAF"/>
<path transform="translate(442,717)" d="m0 0 3 3 14 24 26 44 28 48 4 8-3 4-15-26-13-22-15-26-9-15-7-12 1-3-4-6-4-8-6-11z" fill="#BDBDBD"/>
<path transform="translate(1306,1118)" d="m0 0 6 1 2 4v8l-1 1-11 2-5 4-2 6 1 5 3 5 11 2 2-4h5l-4 6-8 2h-5l-1 2h-5l-6-2-1 3-6-1-5-2-1-3v-14l1 4 4-2 3-4 5 1v2l3-1 4-8 5-5 3-10 2-1-1 7-1 2 4-2zm-23 26-2 3v7l6 2 1-4v-7z" fill="#626262"/>
<path transform="translate(661,1010)" d="m0 0h3l4 7v2h3l14 25 14 24 15 27 14 24 4 8-4 3-16-29-28-49-13-23-10-17z" fill="#FBFBFB"/>
<path transform="translate(696,995)" d="m0 0 4 5 14 23 17 28 8 12 10 7 2 2-1 4-5 6-5 1-6-9 1-6-12-21-13-21-14-23-3-6z" fill="#FCFCFC"/>
<path transform="translate(1035,1203)" d="m0 0 5 2 7 2 10 4 5 1 1 5h-4l1 10 8 1 7 3 1 2v6h-20v-3h-2l-2-6-1-2-1-11h-13l-4-2v-7z" fill="#FBFBFB"/>
<path transform="translate(1061,1210)" d="m0 0 6 1 11 9 15 15 3 5-5 1h-11-4l-31-1-1-2h6l-2-5-7-3v-1l7-1-1-11h3l1 2 1 9 2 3v5h2v3l3-1h14l3 1-1-8-6-1-1-2 2-1v-6l-2-3-7-2 1-4-2-1z" fill="#B1B1B1"/>
<path transform="translate(266,668)" d="m0 0h8l3 2 8 1 58 1 4 5-5 1h-64l-4 5-7-1-4-5 1-7z" fill="#AFAFAF"/>
<path transform="translate(902,1180)" d="m0 0 4 5 6 7 1 5v23l-1 4-5-1 4 5-5-1-2-2-3-7-5-4v-9l7-3v-8l-3-3-6-3-1-1v-5z" fill="#B0B0B0"/>
<path transform="translate(727,981)" d="m0 0 3 4 45 78 11 19 2 5-3 3-10-17-28-49-17-29-6-10v-2h3z" fill="#FBFBFB"/>
<path transform="translate(1381,917)" d="m0 0 2 1-1 5-7 8-8 7-11 3-8 6-5 5-20 1-9 2-3 5-5 2-4-3-1-6 2-5 2-1h28l9-1 10-9 6-4 5 1 8-6 6-6h2z" fill="#595959"/>
<path transform="translate(1285,916)" d="m0 0 7 6 5 5 5 4h13l11-9 5-5 14 1 2 1v2h-8l-12 6-2 3 1 5 2 3v3l-8-1-6-2-24-2-3-1-1-11-11 1 1-8 3 3v-2h6z" fill="#EDEDED"/>
<path transform="translate(1267,932)" d="m0 0h1v56l4 2 6 4v2h2l-1 3-4 1-9-7-6-6v-49l6-4z" fill="#EFEFEF"/>
<path transform="translate(1281,1088)" d="m0 0h12l-1 4-5 3 4 1 3-4h7v1h-6l-3 12-3 7 18-1 12 1v1l-32 1-5-3-1-3 6-2v-6l-3-1-6 3 1 4 1 7-8 5h-2l-2 8h-1v-13l2-13 7-8z" fill="#EFEFEF"/>
<path transform="translate(1041,604)" d="m0 0h8v65l-5 1-4-8v-41z" fill="#AFAFAF"/>
<path transform="translate(821,805)" d="m0 0 4 1 1 3v18l-3 3-7 3v5l2 1v6l-9 1-1-1v-25l5-8z" fill="#F9F9F9"/>
<path transform="translate(621,1057)" d="m0 0 5 3 12 22 16 27 15 26 9 15 1 7-3 1-15-27-14-24-15-26-11-19-1-3z" fill="#FBFBFB"/>
<path transform="translate(926,701)" d="m0 0h2l2 6 1 8v52l5 5 7 2h7l8-3 4-5 2-10 4-1 5 2 1 6-3 4-7 3-7 6-3 1h-15l-7-3-4-3-1-3z" fill="#595959"/>
<path transform="translate(1020,1161)" d="m0 0 3 1 2 6v72l-4 1-2-1v-76z" fill="#F8F8F8"/>
<path transform="translate(956,1065)" d="m0 0h156l38 1 2 2h-101l-14 1h-23l-22-1-35-1z" fill="#AFAFAF"/>
<path transform="translate(453,864)" d="m0 0 3 3 3 4-1-4 3 3 9 16-1 2-4-1-6-10-1-1-62-1v-6h58z" fill="#B2B2B2"/>
<path transform="translate(1097,603)" d="m0 0h9l-3 1 1 6v55l-1 3h-2l-4-7-1-9v-20z" fill="#FCFCFC"/>
<path transform="translate(1216,638)" d="m0 0 5 2 1 37-1 9h-3v-2h-5l-1-5-2 3v-22l1-13 3-7z" fill="#F5F5F5"/>
<path transform="translate(1203,1157)" d="m0 0h17l1 2 8 1v1l-11 2-4-2-9-1-2 6-8 16-2 3v6l-4-1v-1l-10-2-7-2-9-2 5-4 4-4 1 5 7 3v-6l5 2h5l1-4v-13l3-2h3v-2z" fill="#B6B6B6"/>
<path transform="translate(856,690)" d="m0 0 3 3 2 7h9l-4-5v-2h10l3 8 4 7 2 15 6 9 7 3 1 6-2 1h-6l-5-9-5-6-3-20-2-3-16-2-3-2v-2l-2 1v7l4 5-2 4-6-5-4-7 2-4 5-8z" fill="#5E5E5E"/>
<path transform="translate(1230,1060)" d="m0 0 1 4-21 21-8 1h-42l-14-2-51-1-37-1h-47v-1l16-1h122l1 2 8 1h48l9-6 11-11z" fill="#AFAFAF"/>
<path transform="translate(1366,893)" d="m0 0 3 3-1 4-11 11-6 3h-21l-6 4-10 9-9 1-7-4-1-2 5-1 5 1 6-2 8-7 5-5 5-1 20-1 8-4z" fill="#F0F0F0"/>
<path transform="translate(1248,1091)" d="m0 0h5v2h-2l-1 3-7 6-2 4-1 20 1 27 5 4 5 1 2-1 8 2-3 4-8-2-3 2-4-1-5-2 2-2-4-3-1-4v-47l4-6 7-6z" fill="#E4E4E4"/>
<path transform="translate(1121,1180)" d="m0 0 4 2 4 4 1 3 1 18 2 5 8 9 8 7 7 8v4l-11-2-11-4-12-13-9-9-6-12-1-5 3 1v2h2l7 14 6 7 8 7 5 5 11 4-4-7-14-13-3-5-1-21-5-5z" fill="#595959"/>
<path transform="translate(776,923)" d="m0 0 3 3 7 12 5 8-1 2-20-1-5-10-3-1-19-2-2-4 2-1 34-1zm-4 12-1 4 1 2 11-1 1-2-2-3z" fill="#B0B0B0"/>
<path transform="translate(1207,633)" d="m0 0 4 2v4l-3 3-1 41h-1v-9h-2l-2 12v7l-2 3-2-15-1-4 2-35 7-8z" fill="#F9F9F9"/>
<path transform="translate(1256,779)" d="m0 0h6l2 3 1 8 8 9 2 1 32 1-1 4-1 2h-30l-5-3-12-12-6-5 1-6z" fill="#595959"/>
<path transform="translate(676,703)" d="m0 0h6l5 4 1 6-5 6h-7l-5-5-44-1-3-5 48-1zm2 4-2 2 1 4 4 1 1-6z" fill="#C3C3C3"/>
<path transform="translate(1355,889)" d="m0 0 5 1-2 5-6 4-10 2-21 1-4 2-4 8-2 2-5-1-3-5 2-6 11-6 32-2 6-4z" fill="#595959"/>
<path transform="translate(1071,1189)" d="m0 0 4 4 4 8 5 4 9 12-1 2-2-1v-2l-4-2-6-6v-2l-4-2v-2l-4-1 2 5 24 24 6 9-3 1-5-4-7-8-16-16-4-3h-10l1-3-1-3h11l-1-9-1-2 3-1z" fill="#B1B1B1"/>
<path transform="translate(906,646)" d="m0 0 5 2 5 4 3 6 1 40 1 3 3 2v3l-3 1 2 1-1 3-7 1-1-9-1-2v-35l-1-7-6-8-2-3z" fill="#595959"/>
<path transform="translate(532,1108)" d="m0 0h60l5 5 15 26 3 5v3l-4-1-8-13-10-17-2-3-17-1h-39l-3-1z" fill="#FCFCFC"/>
<path transform="translate(1243,1023)" d="m0 0h20l10 1 2 4-31 1-7 4-7 8-2 6-1 9-3 3v-17l1-2h-2l2-7 8-8z" fill="#B1B1B1"/>
<path transform="translate(298,700)" d="m0 0h59l1 4-12 2-49 1-1-1v-5z" fill="#B1B1B1"/>
<path transform="translate(386,756)" d="m0 0 5 1 3 5-1 2h-60l-4-1v-4l2-1z" fill="#B0B0B0"/>
<path transform="translate(885,994)" d="m0 0 64 1 4 1-1 4-3 1h-24l-39-1z" fill="#AFAFAF"/>
<path transform="translate(897,652)" d="m0 0 4 2 5 6 1 2 1 11 1 53 4 5 11 3 1 5-3 4-6-1-7-10-4-5-1-23v-34l-2-9-5-7z" fill="#595959"/>
<path transform="translate(1314,994)" d="m0 0h15l1 3h2l1-2 8-1 10 2 1 7-1 1-13-1-4-2h-9l1 5 2 8-6-4-5-4-7-9v-2z" fill="#EFEFEF"/>
<path transform="translate(1115,648)" d="m0 0h1l2 85 6 9 9 10 2 5v11l-4 6-9 10-3 7v2l4 2v2h-6l-1-1v-10l13-13 2-6-1-11-5-8-10-9z" fill="#B3B3B3"/>
<path transform="translate(1194,639)" d="m0 0h3l1 40 1 2 1 41 2 6 1 4-2 1-5-5-1-8v-42h-2z" fill="#595959"/>
<path transform="translate(1136,1183)" d="m0 0h4v8l3 6 8 8 3 2 16 2-1-6 3 1 6 7 3 3v2l5-1 1 4-3 3-2-5-4-1-3-2v-2h-2l2 5v22h-2l-2-12-2-1-2-10 2-4h-9l-9-3-10-9-4-5-1-3z" fill="#5A5A5A"/>
<path transform="translate(1190,626)" d="m0 0 8 1 5 3-5 10-4-1v29l-1 10h2v3l-3-1-2-4-2-3 1-37h-2l1-7z" fill="#FAFAFA"/>
<path transform="translate(1031,702)" d="m0 0 4 2 2 3 1 11 6 1v-9l3 3 2 7v26l-1-4-2-1 1-5-4-2-5-5-7-9-1-3v-14z" fill="#AEAEAE"/>
<path transform="translate(1023,605)" d="m0 0h9l-2 1v37l-1 12-5-1-1-2z" fill="#AFAFAF"/>
<path transform="translate(405,782)" d="m0 0 3 4 3 6h-66l-1-5 61-1z" fill="#BDBDBD"/>
<path transform="translate(1263,814)" d="m0 0h42l-2 1v4l7 1 1 2h-46l-7-3-1-4z" fill="#595959"/>
<path transform="translate(818,939)" d="m0 0 13 2 8 3 3 4v2h-2v2l-5-1-1 2-4-5-35-1-1 2-3-6v-2l24-1z" fill="#B2B2B2"/>
<path transform="translate(1076,603)" d="m0 0 4 1v93l10 10-3 1-11-11z" fill="#595959"/>
<path transform="translate(1324,957)" d="m0 0h2l-1 4-13 9-4 5-6 2 1-6h-6l-6 2-3 10-4 4-7-2-2-2v-7l8-4 4 1 8-6h14z" fill="#595959"/>
<path transform="translate(377,843)" d="m0 0h63l3 5h-64l-2-1z" fill="#BEBEBE"/>
<path transform="translate(1010,608)" d="m0 0h3v49l6 1 3 5-1 5-2 1h-8l-2-3v-45z" fill="#595959"/>
<path transform="translate(423,813)" d="m0 0 3 4 1 3h-63l-2-2v-3h61z" fill="#BDBDBD"/>
<path transform="translate(1048,603)" d="m0 0h9l-1 73h-5l1-72z" fill="#FBFBFB"/>
<path transform="translate(1119,605)" d="m0 0 4 1 1 94 3 5 1 4-5-2-2-2-1-7z" fill="#B5B5B5"/>
<path transform="translate(903,1180)" d="m0 0 4 2 8 8 2 5 1 8 1 5 2 1-1 24-5-2-4-2-5-6 2-1 4 2 1-4 1-10-2-1v-12l-2-6-7-9z" fill="#B0B0B0"/>
<path transform="translate(980,668)" d="m0 0 7 6 20 20 1 13h-4l-6-5-5-2-9-1-1-4 10 1 1-8-3-3-4-2v-6h-2l-3-5-2-1z" fill="#F0F0F0"/>
<path transform="translate(1032,604)" d="m0 0h3v54l1 2 2 1h-2l1 38 5 5 2 5-6-2-2-4-4-4v-40l1-38 1-16z" fill="#AFAFAF"/>
<path transform="translate(824,800)" d="m0 0h5l2 10v20l-3 2-1-25-1-2-5 1-9 8-3 6-7 4-11 9-7 6-3-1 1-4 13-11 11-8 5-5 9-8z" fill="#C0C0C0"/>
<path transform="translate(1261,1089)" d="m0 0h3l-1 4-10 10v10l2-2 1-7 4-3v3l-2 1-1 15h-6l-1 1-1 8-2 1-3-3v-20l5-7 8-7z" fill="#B0B0B0"/>
<path transform="translate(1263,679)" d="m0 0 4 2 3 8 6 4 9 13v2l-5-1-3-1-3 1-4-3v-2l-5-2-5-3 2-13z" fill="#ADADAD"/>
<path transform="translate(1293,993)" d="m0 0 12 2 4 4v1l-7 1v13l-7-1-4-2-7-13v-3l8-1z" fill="#F6F6F6"/>
<path transform="translate(1124,1200)" d="m0 0 2 2v8l3 4v3h2l1 4 4 1 5 2 7 8v3l-11-3-21-21 1-5 5-5z" fill="#F3F3F3"/>
<path transform="translate(1081,606)" d="m0 0 2 4v51l1 7 1 17v9l-3 3-2-1v-82z" fill="#FCFCFC"/>
<path transform="translate(1371,899)" d="m0 0h1l1 6-7 8-25 25-4 3-2-1 3-6-2-10 1-1h12l3 1v-2l-3-1 5-4 8-6 8-9z" fill="#AFAFAF"/>
<path transform="translate(1045,826)" d="m0 0 4 3 2 1v21l-1 4-2 1h-28l-1-4 24-1 1-24z" fill="#B2B2B2"/>
<path transform="translate(1301,1063)" d="m0 0h28l3 1-1 4h-61l-3-2v-2h20z" fill="#595959"/>
<path transform="translate(1344,1033)" d="m0 0 6 5v5l-7 8-6-1-7-8-5-2-1-3 2-2 8-1z" fill="#F9F9F9"/>
<path transform="translate(1068,603)" d="m0 0h3v73l-3 1-1 5-3-1-1-5 4-1v-70z" fill="#595959"/>
<path transform="translate(801,965)" d="m0 0 3 3 5 9 6 10-2 1-3-4-29-1-11-1-1-4 2-1 34-1-4-9z" fill="#B0B0B0"/>
<path transform="translate(1382,922)" d="m0 0h2l1 5-3 5 5 2-2 4-5 5-7 5-5-1-1-4 1-3-4-1 3-2 8-7z" fill="#AFAFAF"/>
<path transform="translate(1290,730)" d="m0 0 2 1-1 4-14 14h-2l-2 4-7 8-5 6h-5l-3-4 1-6 5-2 4 1 21-21z" fill="#595959"/>
<path transform="translate(1292,1118)" d="m0 0 10 1v7l-2 5-6 7-3 6h-3v-2h-5l-5 5h-2v-6l7-6 9-4 3-7h-2z" fill="#F4F4F4"/>
<path transform="translate(909,703)" d="m0 0 7 3-2 6-1 7h2l2 3 7-1 1 4-1 4 1 4h-10l-5-4-2-3v-22z" fill="#F4F4F4"/>
<path transform="translate(1249,664)" d="m0 0 3 2v24l-3 7-10 8h-3l-1 3-2-1 2-4 8-7 4-5 1-10-3 1-1-2-5 3 2-6 2-10 5-1z" fill="#5A5A5A"/>
<path transform="translate(981,1214)" d="m0 0h2v5l4-1v-3h2v15h3l-2 6v2l4 1-2 1h-17l5-4 3-3 2-5-5 2-13 13h-2l2-4 5-6h2l2-4 3-3z" fill="#A3A3A3"/>
<path transform="translate(884,662)" d="m0 0 1 4v29l6 7v2l4 2 4 4v8l-2 2-7-1-2-4 1-5 2-3-9-9-1-2v-28l2-5z" fill="#595959"/>
<path transform="translate(266,668)" d="m0 0h8l3 2 8 1v1h-7l1 3 62 1v1l-63 1-4 5-7-1-4-5 1-7z" fill="#FCFCFC"/>
<path transform="translate(1331,1066)" d="m0 0 1 4-2 3h-58l-3-3 1-3 61 1z" fill="#AFAFAF"/>
<path transform="translate(1080,610)" d="m0 0 1 4v82h3l1-2 6 2h5l1 5v7l-1 2-5-1-12-12v-86z" fill="#AFAFAF"/>
<path transform="translate(846,975)" d="m0 0 2 2 1 5 7 3h6l-1 2h-14l-4-3-26-1-4-2v-3l2-1h31z" fill="#B2B2B2"/>
<path transform="translate(1033,1163)" d="m0 0h12l5 4 2 3v17h-6l-3-2v-2l-3-1 6-1v-9l-1-2-6-1-2 1-1 9h-1l-1-5h-3l-1 4v-10z" fill="#B6B6B6"/>
<path transform="translate(846,831)" d="m0 0 5 1 2 2-1 6-1 1-10 2-6 5-6 2h-11l-6 3-1-6 2-2 11-1h8l7-5z" fill="#595959"/>
<path transform="translate(1022,1138)" d="m0 0h40l2 5-2 1h-38l-3-2z" fill="#595959"/>
<path transform="translate(860,750)" d="m0 0 5 3 2 4-2 4-8 1-5-1-23-2-1-2 10-1 9-3z" fill="#595959"/>
<path transform="translate(1156,700)" d="m0 0 3 1 4 7 2 27 6 8 2 1v2h2l2 5-2 1-8-7-7-7-1-4-1-23-3-10z" fill="#595959"/>
<path transform="translate(902,1180)" d="m0 0 4 5 6 7v17l-9-6v-9l-3-3-6-3-1-1v-5z" fill="#F7F7F7"/>
<path transform="translate(1051,604)" d="m0 0h1v68l-1 4 4 1-2 1-4 12h2l3 8 5 4h11l-4 2h-10l-1 3-4-3v-2l-3-1-1-3v-26l4-1z" fill="#AFAFAF"/>
<path transform="translate(1280 1e3)" d="m0 0 6 1 2-1 5 9v2l19 2 3 2v2l10 3 4 1v2l3 1-4 1h-9l-7-6-2-1-16-1-7-8-1-4h-5z" fill="#606060"/>
<path transform="translate(780 1e3)" d="m0 0h4l5 7 8 6 2 5-5 6-4 1-5-2-2-4v-10l-4-8z" fill="#FCFCFC"/>
<path transform="translate(338,728)" d="m0 0h11l10 1-1 3-4 2h-41l-2-1 1-4z" fill="#626262"/>
<path transform="translate(936,630)" d="m0 0 1 2 4 2 9 10 3 6v20l-5-2-2-1v-18l-7-8-8-8 3-2z" fill="#B3B3B3"/>
<path transform="translate(1247,850)" d="m0 0 2 3 4 1 2 7 4 1 2-1 1-5 2 1 3 1 6 1 3 2-3 2h5l1 2-9 1-4 2h-14l-4-2-1-6v-5l-1-3z" fill="#B0B0B0"/>
<path transform="translate(1302,1097)" d="m0 0h9l4 3h10l9 6 7 8-1 4-7-7-4-5-9-3h-6l-2 5-2 1h-7l-2-1v-4l1-1h-1v-5z" fill="#595959"/>
<path transform="translate(1297,970)" d="m0 0h6l1 3-3 7h-2l1 9-2 1h-11v-7l3-8 3-3z" fill="#EFEFEF"/>
<path transform="translate(1013,693)" d="m0 0 3 2 3-1 1 28 3 8v7h-2v-2l-3-1-4-6-1-10z" fill="#B0B0B0"/>
<path transform="translate(1149,701)" d="m0 0h3l-1 4v3 18l-6 9-4 8-1 1-7-1-2-4 1-5 10-4 5-5 1-23z" fill="#595959"/>
<path transform="translate(845,704)" d="m0 0 2 2 3 9 7 8 9 8 8 5 1 3-2 3-5-1-9-9-8-7-7-10-1-8z" fill="#595959"/>
<path transform="translate(1234,788)" d="m0 0 6 2 9 5 2 5 4 6h-3l1 5-4-2-8-9-5-3h-5l-8 6h-2l2-4 6-5h2l-1-3h-5v-2zm9 9 1 4 4 3 2-1-4-6z" fill="#606060"/>
<path transform="translate(269,611)" d="m0 0 7 2 2 2 11 1-4 1 3 4-9 1-6 5-6-1-4-5 1-6 2-3z" fill="#FCFCFC"/>
<path transform="translate(1041,604)" d="m0 0 3 1v45l1 7-1 7-4-2v-41z" fill="#595959"/>
<path transform="translate(896,1228)" d="m0 0 6 2 17 5 1 4 5-1 2-1-1 4h-19l-11-1-1-2z" fill="#FAFAFA"/>
<path transform="translate(833 1e3)" d="m0 0h31v2l4 2-1 3v-2l-4 1h-28l-7-1-1-4z" fill="#BABABA"/>
<path transform="translate(1075,1221)" d="m0 0 5 1 13 13 3 5-5 1h-11l-2-3h2l-4-9-2-4z" fill="#F4F4F4"/>
<path transform="translate(894,654)" d="m0 0h2l1 29 3 4v6l-4 3-5-1-3-3v-5l3-3 1-5 1-24z" fill="#595959"/>
<path transform="translate(1200,1130)" d="m0 0v3l-7 8-6 2h-98v-1l19-1 83-1 1-3z" fill="#AFAFAF"/>
<path transform="translate(1204,674)" d="m0 0h2v15l-1 6h6l3-2-1-4-2-4v-7l2 1 1 4 4 1 2 3v14h-1l-1-5-1 2-10 1-3-1v-2h-3v-10z" fill="#B2B2B2"/>
<path transform="translate(203,640)" d="m0 0h8l7 4 1 3 2 2h-6l-2 4-2 2-7-1-4-4v-7z" fill="#FCFCFC"/>
<path transform="translate(925,699)" d="m0 0h1l1 17v49h-1l-1-23-2-1 1-6-2-2 2-1-1-5 1-6-4 2-4-1-1-3h-2v-7l2-3v8l5 1 2-2 1-8-3-1 4-1z" fill="#AEAEAE"/>
<path transform="translate(921,1288)" d="m0 0h6l-2 1 1 4-5 4-11 20-8 13-3 1 1-6 6-11 10-18z" fill="#FCFCFC"/>
<path transform="translate(919,1263)" d="m0 0h14l3 3-1 2-21 1-2 5-9 15-3 1 1-6 8-15 6-5z" fill="#FCFCFC"/>
<path transform="translate(1273,933)" d="m0 0 1 3 25 3 18 2v1h-16l-27-3 1 32 1 3 2 1-3 1 1 7 6 3h4l1-2v6h-8l-4-2-2-6z" fill="#AFAFAF"/>
<path transform="translate(1066,703)" d="m0 0h6l4 3 1 13h-3l-5 2-1 2-5-1-2-1v-2h8v-9l-12-1-1-5z" fill="#eee"/>
<path transform="translate(687,1110)" d="m0 0 7 3 3 3v5l-5 6h-6l-5-7 1-4v-4-1z" fill="#FCFCFC"/>
<path transform="translate(792,1319)" d="m0 0h7l5 5v6l-5 5-7-1-4-5v-5z" fill="#FCFCFC"/>
<path transform="translate(1028,1148)" d="m0 0h32l9 11 3 6v4l-3-1-4-8-4-6-2-1-32-1z" fill="#595959"/>
<path transform="translate(1127,608)" d="m0 0h3l1 3v45l-1 3h-2l-1-7z" fill="#FCFCFC"/>
<path transform="translate(1294,1092)" d="m0 0h7v1h-6l-3 12-3 7 18-1 12 1v1l-32 1-5-3-1-3 6-2v-6l-3-1-6 3 1 7-3-2v-8l5-2v-2l6-1 4 2z" fill="#B0B0B0"/>
<path transform="translate(1380,913)" d="m0 0 2 4-3 5-8 7-8 6-5-1-3 1-4-1v-3l4-4h8l6-3 9-10z" fill="#AEAEAE"/>
<path transform="translate(835,892)" d="m0 0h1v23l-1 3-5 4-3 1 3 10-1 2h-3l-2-3 1-8-5 1 1-7 10-2 2-22z" fill="#595959"/>
<path transform="translate(963,1262)" d="m0 0 1 2 6-2 5 5v7l-5 5h-5l-5-5v-7z" fill="#FCFCFC"/>
<path transform="translate(936,1302)" d="m0 0 2 2h5l5 6-1 6-3 3h-7l-5-5 1-6 2-2z" fill="#FCFCFC"/>
<path transform="translate(870 1e3)" d="m0 0h73l7 2-2 1-31-1h-45l3 9h-2v2h-30v-1h29l-3-8z" fill="#B0B0B0"/>
<path transform="translate(494,872)" d="m0 0 5 5v2l35 1 4 2v1l-7 1h-32l-5-5-2-3 1-3z" fill="#B3B3B3"/>
<path transform="translate(1366,893)" d="m0 0 3 3-1 4-11 11-6 3-19-1v-1l13-2 1-1-15-1v-1l20-1 8-4z" fill="#B1B1B1"/>
<path transform="translate(1252,667)" d="m0 0 3 3 2 13v7l-3 7-5 5-2 3-1 16h-1l-1-15-4-3 9-7 2-6z" fill="#B0B0B0"/>
<path transform="translate(937,1197)" d="m0 0 2 3v3l4 1 2 4v1l-8 1-5 4-3 1-2 3-3-1v-7z" fill="#F9F9F9"/>
<path transform="translate(880,669)" d="m0 0h1l1 27 2 4-1 3-3 1-3-4-3-12 1-14 1-2h3z" fill="#ECECEC"/>
<path transform="translate(936,1014)" d="m0 0 4 2-3 1-56 1-2 3h-2l-1-2-34-1v-1h31v-2z" fill="#9C9C9C"/>
<path transform="translate(965,618)" d="m0 0h6l-3 2 4 5 1 3v12l-6-5-7-8-4-4v-2z" fill="#EBEBEB"/>
<path transform="translate(1173,1212)" d="m0 0h2l4 4 3 2h-2l2 8 2 4-1 9-1 1h-8v-23z" fill="#B8B8B8"/>
<path transform="translate(1298,772)" d="m0 0h8v4l-6-1-6 4-7 10-2 2-5-1-3-3v-5l4-4 6 1 5-3z" fill="#595959"/>
<path transform="translate(935,1211)" d="m0 0v3l-3 9 1 6 11-1 3 3-11 2v-2l-4 2-5-1-3-1-1-19h1l1 5h2l2-3z" fill="#AFAFAF"/>
<path transform="translate(1299,746)" d="m0 0 1 4-8 7-6 9-5 1-4-5 1-5 3-2 7-2 8-6z" fill="#595959"/>
<path transform="translate(1314,994)" d="m0 0h15l1 3h2l1-2 8-1 10 2 1 7-1 1-13-1-4-2h-7l1-6h-14z" fill="#B8B8B8"/>
<path transform="translate(373,728)" d="m0 0 3 3 7 11-1 2-6-8-64-1 1-2h41l4-2 1-2z" fill="#B1B1B1"/>
<path transform="translate(1061,678)" d="m0 0 3 1 1 3-3 5-1 9h5l1 4h-9l-4-7-2-6 2-7 4-1 3 1z" fill="#BDBDBD"/>
<path transform="translate(990,1118)" d="m0 0 6 1 3 4v7l-5 3h-6l-4-6 2-6z" fill="#595959"/>
<path transform="translate(820,854)" d="m0 0 6 2 7 10 3 5v8l-4-5-4-6-2-2-8-2-3-3 1-5z" fill="#595959"/>
<path transform="translate(1329,962)" d="m0 0 5 1-8 8h-2l-2 4-8 7-6 5-5 1 2-4 2-3h2l1-4 11-9z" fill="#5A5A5A"/>
<path transform="translate(956,634)" d="m0 0 4 2 2 4 2 9 2 16 5 12 4 1v6l-5-4-6-8-3-5-1-4-2-25z" fill="#EBEBEB"/>
<path transform="translate(1233,986)" d="m0 0 3 1 1 7 6 2 13 2v2l-7 2v9l9 1-1 4-4 1-4-2-6-11-4-5-6-5-1-7z" fill="#B6B6B6"/>
<path transform="translate(1152,1197)" d="m0 0 4 2 4 4h8l2-5 2-1 2 7 2 1v3l-4-2v-2h-2v5h-11l-6-2-8-7 2-1h3 2z" fill="#B0B0B0"/>
<path transform="translate(1362,888)" d="m0 0 3 1-2 6-9 7-8 2-21 1-7-2 3-2 21-1 10-2 6-4 2-5z" fill="#AEAEAE"/>
<path transform="translate(968,1118)" d="m0 0 5 1 3 3v8l-5 3h-6l-2-2-1-7 2-4z" fill="#595959"/>
<path transform="translate(816,773)" d="m0 0h13l9 4 4 4 8 1 2 3-1 5-3 2-4-1-7-9-5-4-15-3z" fill="#595959"/>
<path transform="translate(1279,1117)" d="m0 0h3l1 2 6-1-1 3-6 1-1 11-5 5-1 2-3-1 1-17 1-3z" fill="#bbb"/>
<path transform="translate(677,753)" d="m0 0 6 1 4 4 1 7-6 5-7-1v-14zm1 6v4l2 1 1-4z" fill="#B7B7B7"/>
<path transform="translate(861,1382)" d="m0 0h8l3 3 1 2v6l-5 4-7-1-4-4v-6zm4 3-3 2 1 4 5-1-1-5z" fill="#BDBDBD"/>
<path transform="translate(1058,1169)" d="m0 0 4 1 3 11v3l-14 1 1-14h5z" fill="#FAFAFA"/>
<path transform="translate(963 1e3)" d="m0 0 3 2 1 12v37l4 1-1 1h-6z" fill="#BFBFBF"/>
<path transform="translate(820,925)" d="m0 0 2 1-5 5-1 4h-28l2 5-4-4-3-6 1-2 8 1v1h23z" fill="#B2B2B2"/>
<path transform="translate(1034,1226)" d="m0 0h3v2l4 1 7 3 2 2v4l-5 1-3 1h-7l-1-1z" fill="#F8F8F8"/>
<path transform="translate(1313 1e3)" d="m0 0 3 3 1 5 1 3 2 2-1 3 4 2-5-1-6-5-17-2-2-1v-2l9 2-1-7 4 2 5 2 2-5z" fill="#B0B0B0"/>
<path transform="translate(1113,1212)" d="m0 0 7 6v2l4 2 10 11 8 3-1 4h-4l-2-3-6-5-2-1-1 2-7-8-4-4v-2h-2l-3-4v-2z" fill="#AFAFAF"/>
<path transform="translate(1328,1119)" d="m0 0 7 1 3 3-1 7-4 3-7-1-1-3v-9z" fill="#595959"/>
<path transform="translate(793,1290)" d="m0 0 2 1 3 7 1 1v20l-1 1h-5z" fill="#AFAFAF"/>
<path transform="translate(1132,688)" d="m0 0h1v8l8-1 3 3v9l-7 2-6-3 1-2z" fill="#F4F4F4"/>
<path transform="translate(1304,828)" d="m0 0 7 1 7 6 3 1 3 5v2l-4-2-4-3-7 1-3 1-5-4 1-6z" fill="#595959"/>
<path transform="translate(905,932)" d="m0 0 2 3 3 9 3 28 2 2-3 3h-3l-1-2-1-21-2-16z" fill="#BABABA"/>
<path transform="translate(824,800)" d="m0 0h5l2 10v20l-3 2-1-25-1-2-5 1-11 10-1-3 7-8z" fill="#595959"/>
<path transform="translate(1251,1188)" d="m0 0 24 1v1l-6 1-63 1v-3z" fill="#B2B2B2"/>
<path transform="translate(1278,995)" d="m0 0h6l1 5-7 3 1 7 2 1v3l2 2-3 1-7-6-3-7v-8l6 3 3-1 1-2z" fill="#B3B3B3"/>
<path transform="translate(679,873)" d="m0 0 6 3 3 4-1 6-6 4-5-1-2-1v-12zm-1 5-2 5 5 2 2-4-3-3z" fill="#BEBEBE"/>
<path transform="translate(824,888)" d="m0 0h5l1 3h2l1-3 1 6-3 7-13-1-1-4 5-5z" fill="#F8F8F8"/>
<path transform="translate(822,804)" d="m0 0 5 1 1 2 1 24 2-1-1 5v4l-3 2-1 3-4 1-5-2v-4l9-1v-7l-1-4v-21l-3-1z" fill="#B3B3B3"/>
<path transform="translate(945,674)" d="m0 0 2 3 12 15v5l-9 1v-2h-2l1-7-4-5-1-6z" fill="#F0F0F0"/>
<path transform="translate(932,1113)" d="m0 0h66l2 1v2l-54-1-6 1-8-1z" fill="#ADADAD"/>
<path transform="translate(1100,1188)" d="m0 0h1v12l1 11-5-2-2-2v-4h-5v-1h5v-9h-10l2-3 7-1 5 3z" fill="#B0B0B0"/>
<path transform="translate(1295,1042)" d="m0 0 5 2 2 11-1 2h-9l-2-10v-2h2v-2z" fill="#ECECEC"/>
<path transform="translate(1230,1060)" d="m0 0 1 4-21 21-8 1h-42v-2l46-1 9-6 11-11z" fill="#AFAFAF"/>
<path transform="translate(1257,901)" d="m0 0h7l3 3v7l-2 2h-9l-2-4 1-7z" fill="#595959"/>
<path transform="translate(1180,686)" d="m0 0h2l1 5-1 4h2v-7l1-2 5 1 1 1v5l-5 1 3 11-1 2-4-2-1-4-2-1-1-7-2-1 1-5z" fill="#AEAEAE"/>
<path transform="translate(1097,604)" d="m0 0 3 1-1 57-2-1-1-9v-20z" fill="#BABABA"/>
<path transform="translate(1126,1189)" d="m0 0h1l1 21 6 8 4 5-6-2-1-4h-2l-4-7v-8h-3l-7 7-2-5-1-2h7l-1-11 6 3v3h2l-1-3z" fill="#B3B3B3"/>
<path transform="translate(1071,1189)" d="m0 0 4 4 4 8 5 4 9 12-1 2-2-1v-2l-4-2-6-6v-2l-4-2v-2l-4-1-2 1-1-8-1-2 3-1z" fill="#AFAFAF"/>
<path transform="translate(1343,1006)" d="m0 0h7l2 2-1 4-7 2h-10l-5-2v-3l5-1 1-1z" fill="#E9E9E9"/>
<path transform="translate(1331,917)" d="m0 0 14 1 2 1v2h-8l-12 6-4 6h-6l-2-2 11-9z" fill="#B1B1B1"/>
<path transform="translate(986,706)" d="m0 0 7 2 5 4 1 4-4 5-7-1-2-7z" fill="#595959"/>
<path transform="translate(1244,679)" d="m0 0 4 2v10l-7 8h-3l-1-5 5-13z" fill="#BABABA"/>
<path transform="translate(1089,664)" d="m0 0h5l3 5-1 16-4 1v-2l-2-1-1-6z" fill="#FBFBFB"/>
<path transform="translate(1256,828)" d="m0 0h6l3 3-1 6-1 2-9 4-6 7h-2l2-5 5-7h2l2-7-2-2z" fill="#5C5C5C"/>
<path transform="translate(1283,1141)" d="m0 0 5 1v2l3 1-3 3-1-3h-4l-1 2v7l4 2-3 4h-7l-1-3v-14l1 4 4-2z" fill="#AEAEAE"/>
<path transform="translate(1313,1044)" d="m0 0h9l2 3v4l2 1-3 5h-8v-7h-2z" fill="#EFEFEF"/>
<path transform="translate(784,938)" d="m0 0 3 1 4 7-1 2-20-1 1-7h7z" fill="#ADADAD"/>
<path transform="translate(1358,939)" d="m0 0h7l3 1-1 5-7 4h-11v-4z" fill="#F5F5F5"/>
<path transform="translate(1332,1026)" d="m0 0 8 1 4 4v1h-28l-1-4 13-1z" fill="#EBEBEB"/>
<path transform="translate(1328,974)" d="m0 0h4l5 5 4 2 2 6h-10l-4 1-2-1v-5l3-3 3 1 1-2h-8z" fill="#666"/>
<path transform="translate(1233,901)" d="m0 0 7 1 1 2v7l-2 2h-8l-2-6 2-5z" fill="#595959"/>
<path transform="translate(1052,710)" d="m0 0 6 1 1 5h-2l-1 3-2-1v16l4 1h3l-1 4-6 4-1 7h-1z" fill="#B0B0B0"/>
<path transform="translate(1194,639)" d="m0 0h3v36h-2v3h-2z" fill="#909090"/>
<path transform="translate(1175,622)" d="m0 0h1l1 66 3 5 1 7 4 2-3 1-7-7-1-73z" fill="#AFAFAF"/>
<path transform="translate(1034,720)" d="m0 0 5 2 1 2h3l1-4 4 1v14l-4-2-6-4-4-5z" fill="#FCFCFC"/>
<path transform="translate(825,782)" d="m0 0 3 2v5l-4 3-6 3-7 6 1-7 4-2 1-3 1-5z" fill="#595959"/>
<path transform="translate(1177,620)" d="m0 0 8 1 2 2-2 38h-2l-1-37-5-1z" fill="#B7B7B7"/>
<path transform="translate(1061,1210)" d="m0 0 6 1 11 9-3 2v5l-2-1 1 5-5-1-1-2 2-1v-6l-2-3-7-2 1-4-2-1z" fill="#B3B3B3"/>
<path transform="translate(1256,1043)" d="m0 0h7l5 2 4 6 3 6v2l-4-2-5-9h-12l-4 4-2 4-1-5 3-5z" fill="#595959"/>
<path transform="translate(1212,778)" d="m0 0 4 2 2 3-1 6-3 2-5-1-3-5 2-5z" fill="#595959"/>
<path transform="translate(1194,702)" d="m0 0h1l1 26-1-2-4-1-2-2-5-1-2-2 7-1 1-5 1-3v-5l2 1z" fill="#B0B0B0"/>
<path transform="translate(1300,1134)" d="m0 0 2 1-3 4 1 5 3 1 2 9 2 2-8-1-5-8 1-7z" fill="#B2B2B2"/>
<path transform="translate(845,926)" d="m0 0 6 1 2 3v5l-3 3h-6l-2-3v-6z" fill="#595959"/>
<path transform="translate(1301,764)" d="m0 0 4 1 4 3 2 10-5 3h-3l-1-5-2-2 6 1v-2l-7-1z" fill="#B5B5B5"/>
<path transform="translate(1051,1107)" d="m0 0h4v5h-2v3l3 1 13 1v3l-11 1-2 4h-4z" fill="#B7B7B7"/>
<path transform="translate(1270,690)" d="m0 0 5 2 10 14v2l-5-1-4-1-4-7z" fill="#B1B1B1"/>
<path transform="translate(1222,664)" d="m0 0h1l1 32-1 7-3 3h-2l1-5z" fill="#595959"/>
<path transform="translate(1194,694)" d="m0 0h1v8l-1 6-2-1v6l-5-5 1-4-2-9z" fill="#F6F6F6"/>
<path transform="translate(1040,670)" d="m0 0 2 3 2-2v28l-3-1-1-3z" fill="#AFAFAF"/>
<path transform="translate(1356,880)" d="m0 0 4 1-1 5-5 5-6 4-16-1 1-2 11-1 8-4 3-3z" fill="#AEAEAE"/>
<path transform="translate(893,879)" d="m0 0 8 1 1 5-2 4-2 1h-6l-1-1v-8z" fill="#595959"/>
<path transform="translate(903,1180)" d="m0 0 4 2 8 8 1 3v16h-3l-2-17-8-10z" fill="#595959"/>
<path transform="translate(1190,1094)" d="m0 0h1v37h-2l-1-5v-27z" fill="#BFBFBF"/>
<path transform="translate(913,1018)" d="m0 0h14l6 2 1 2v6l-2-4h-12l-1-2-7-1z" fill="#B5B5B5"/>
<path transform="translate(1026,717)" d="m0 0h2l4 8 6 7h1v5l-3 1-5-3-4-10z" fill="#DCDCDC"/>
<path transform="translate(867,708)" d="m0 0h5l1 2-4 1 5 4-1 5h-5l-10-4 2-2h3l1-3h2z" fill="#6C6C6C"/>
<path transform="translate(963,1229)" d="m0 0h2v2l7 1-1 4-4 4h-7l-1-1v-5z" fill="#F6F6F6"/>
<path transform="translate(1373,909)" d="m0 0 3 1-1 6-11 9h-5l3-5h2l2-4z" fill="#AFAFAF"/>
<path transform="translate(869,879)" d="m0 0 7 1 2 1v6l-3 3h-6l-1-1v-8z" fill="#595959"/>
<path transform="translate(1008,727)" d="m0 0 3 1 2 4v10h6l2 1v-3h2l1 4-7 2-8-4-2-7z" fill="#A5A5A5"/>
<path transform="translate(1185,778)" d="m0 0 6 1 1 2v8l-3 2h-5l-3-4 2-7zm-1 5 2 4 4-2-1-2z" fill="#757575"/>
<path transform="translate(1127,1231)" d="m0 0 5 2 3 3 2 1v3h4v-2l-3-1h7v3l4 1h-21z" fill="#F5F5F5"/>
<path transform="translate(981,1214)" d="m0 0h2l1 11-7 8-8 9-4 1 2-4 5-6h2l2-4 3-3z" fill="#595959"/>
<path transform="translate(1095,696)" d="m0 0h1l1 5v7l-1 2-5-1-3-5v-5h2l1-2z" fill="#FAFAFA"/>
<path transform="translate(1205,899)" d="m0 0 5 2 3 5v4h2v3h-8l-2-4z" fill="#5F5F5F"/>
<path transform="translate(1382,922)" d="m0 0h2l1 5-10 9-7 5-4-2 3-2 8-7z" fill="#BDBDBD"/>
<path transform="translate(1197,873)" d="m0 0h1l1 8v28l7 1 1 3-10-1z" fill="#AFAFAF"/>
<path transform="translate(870,805)" d="m0 0 5 1 2 3-1 5-5 3h-2l-2-4v-5z" fill="#595959"/>
<path transform="translate(1241,1154)" d="m0 0 4 2 6 2 2-1 8 2-3 4-8-2-3 2-4-1-5-2 2-2-1-2z" fill="#B1B1B1"/>
<path transform="translate(870,831)" d="m0 0 7 1 2 4-2 4-6 2-2-1-1-7z" fill="#595959"/>
<path transform="translate(771,986)" d="m0 0 3 1 9 15v2l-4 1-8-13-2-5z" fill="#BFBFBF"/>
<path transform="translate(1247,850)" d="m0 0 2 3 4 1 2 7 4 3-7 1-3 2-2-3v-9l-1-3z" fill="#AFAFAF"/>
<path transform="translate(1120,1168)" d="m0 0 2 1 1 11-2 1v3l-12-1v-2l-3-1-1-4 4 2 6 1h5z" fill="#BEBEBE"/>
<path transform="translate(355,757)" d="m0 0h29l4 2-2 1h-17l-19-1v-1z" fill="#727272"/>
<path transform="translate(880,665)" d="m0 0h2l-1 4-2 4-3-1-1 11-2 3-3-8-2-2 5-5z" fill="#BABABA"/>
<path transform="translate(817,925)" d="m0 0 3 1-5 5h-25l2-2 6-1h10l1-2 5 1z" fill="#707070"/>
<path transform="translate(895,853)" d="m0 0 6 2 1 5-4 3h-5l-2-2v-6z" fill="#595959"/>
<path transform="translate(1302,837)" d="m0 0 5 2 4-2h5l1 2h-2v6l-11-1-3-3z" fill="#AFAFAF"/>
<path transform="translate(1208,733)" d="m0 0 6 2 1 1v5l-3 3h-6l-2-1 1-4 2-1z" fill="#5C5C5C"/>
<path transform="translate(1030,1151)" d="m0 0 24 1 5 2 3 4-1 2-2-2-10-2-7-1-1-1-11-1z" fill="#FAFAFA"/>
<path transform="translate(1212,1132)" d="m0 0 2 1-10 8-11 9-3-1v-2l5-3 11-10z" fill="#BFBFBF"/>
<path transform="translate(873,1015)" d="m0 0 28 1v1l-20 1-2 3h-2l-1-2-34-1v-1h31z" fill="#595959"/>
<path transform="translate(818,939)" d="m0 0 13 2 8 3 3 4v2l-5-2-5-3-13-2-2-1z" fill="#595959"/>
<path transform="translate(824,876)" d="m0 0 8 2 1 10-1 3-3 1-1-3-2-2v-6l-2-1z" fill="#B4B4B4"/>
<path transform="translate(916,804)" d="m0 0 5 1 2 4-1 5-3 1-2-3-6-1 2-5z" fill="#5C5C5C"/>
<path transform="translate(1096,733)" d="m0 0h2l-2 9-1 2h-9l-1-3 5-5 5-2z" fill="#878787"/>
<path transform="translate(1322,965)" d="m0 0 2 1-12 11h-2l-1 2-3-2v-2h2l2-4 5-4z" fill="#EFEFEF"/>
<path transform="translate(1203,1157)" d="m0 0h17l1 2 8 1v1l-11 2-4-2-17-2v-1z" fill="#B9B9B9"/>
<path transform="translate(870,854)" d="m0 0 6 1 3 2-2 5-1 1h-6l-2-2v-5z" fill="#595959"/>
<path transform="translate(981,1228)" d="m0 0h4l-2 6-8 6-3 1-2 3 1-6z" fill="#eee"/>
<path transform="translate(975,1215)" d="m0 0 2 3 1 3v7l-4 5-9-2v-3l7-1 2-3v-8z" fill="#B4B4B4"/>
<path transform="translate(919,1115)" d="m0 0 6 1 4 5 1 2v6l-3 3h-3v2h-5l-2-3 8-1 2-2-1-7-4-2h-6z" fill="#ABABAB"/>
<path transform="translate(1129,773)" d="m0 0 2 1-9 10-3 7v2l4 2v2h-6l-1-1v-10z" fill="#C4C4C4"/>
<path transform="translate(677,1096)" d="m0 0h2l8 13v2h-6l-6-11v-2h2z" fill="#C1C1C1"/>
<path transform="translate(1070,710)" d="m0 0h2l5 5-1 4h-2l-5 2-1 2-5-1-2-1v-2h8z" fill="#B6B6B6"/>
<path transform="translate(980,668)" d="m0 0 7 6 11 11-3 3-4-3-4-2v-6h-2l-3-5-2-1z" fill="#AFAFAF"/>
<path transform="translate(1272,1015)" d="m0 0 7 4 7 6 3 3-6 1-8-7v-3l-5-1 2-1z" fill="#bbb"/>
<path transform="translate(1380,930)" d="m0 0h2l1 3-11 11-5 1 2-5z" fill="#595959"/>
<path transform="translate(939,804)" d="m0 0h7l2 3-1 9-5 1 1-5h-2l-1-4h-2z" fill="#7E7E7E"/>
<path transform="translate(1254,1047)" d="m0 0h12l2 2v6l-5-1v-2l-9-1-1-3z" fill="#EFEFEF"/>
<path transform="translate(1243,853)" d="m0 0 2 2v7l-6-1v2l-9-1-1-2v-6h2v6h7l2-6z" fill="#B8B8B8"/>
<path transform="translate(1167,616)" d="m0 0 5 1 2 1v6l-7 1-1 2h-2v-8h2z" fill="#ADADAD"/>
<path transform="translate(605,1130)" d="m0 0h2l8 14v3l-4-1-7-11z" fill="#BFBFBF"/>
<path transform="translate(1246,1104)" d="m0 0h2v17h-2l-1 4h-1v-18z" fill="#F8F8F8"/>
<path transform="translate(904,1232)" d="m0 0 7 1 8 2 1 4 5-1 2-1-1 4h-12v-3l1-2-10-2z" fill="#B0B0B0"/>
<path transform="translate(1182,1204)" d="m0 0 4 2 2 9v8l-2 1-2-2 2-5v-2h-2l-1 2-3-3 1-2 2 1z" fill="#B5B5B5"/>
<path transform="translate(1326,1007)" d="m0 0 3 1v4l10 2 2 4-4 1-9-1-1-2z" fill="#5C5C5C"/>
<path transform="translate(1016,722)" d="m0 0 1 2h3l3 6v7h-2v-2l-3-1-3-5z" fill="#EDEDED"/>
<path transform="translate(1059,683)" d="m0 0h3l-1 13h5l1 4h-9l-1-4 2-1-2-7z" fill="#AFAFAF"/>
<path transform="translate(1122,685)" d="m0 0h1l1 15 3 5 1 4-5-2-2-2-1-7v-8z" fill="#B9B9B9"/>
<path transform="translate(1166,1229)" d="m0 0 5 1 1 9h-7l-2-6z" fill="#FCFCFC"/>
<path transform="translate(1019,1139)" d="m0 0h2l1 4-7 4-8 9-2 4v-6l7-9z" fill="#B5B5B5"/>
<path transform="translate(947,649)" d="m0 0h1v5h2l2 11h1v5l-5-2-2-1z" fill="#B0B0B0"/>
<path transform="translate(1291,1120)" d="m0 0 2 1v3h2l-2 7-11 6-2 1 1-5 8-4 1-3-1-3z" fill="#B1B1B1"/>
<path transform="translate(1129,821)" d="m0 0h7l-2 4-2 2h-5v-3h-9l-5-1v-1z" fill="#B7B7B7"/>
<path transform="translate(1048,1194)" d="m0 0 2 1 2 11 1 4-6-2-7-1v-2l8-1z" fill="#A0A0A0"/>
<path transform="translate(1266,1132)" d="m0 0 2 2-1 4v19l1 3 2 2-5-1-2-2 1-18z" fill="#B0B0B0"/>
<path transform="translate(1252,864)" d="m0 0h16v3l-2 1h-14l-2-2z" fill="#E9E9E9"/>
<path transform="translate(790,827)" d="m0 0h5l1 2-11 9h-4l1-4z" fill="#FCFCFC"/>
<path transform="translate(966,803)" d="m0 0 5 2 1 2-1 9-7 2-1-2h4v-5-3l1-2-6 1 1-3z" fill="#858585"/>
<path transform="translate(1220,802)" d="m0 0 2 2-8 8-6 10-2 3v-8l7-8z" fill="#bbb"/>
<path transform="translate(1232,708)" d="m0 0 2 1-1 4-3 3 3 2 6 1-1 4h-7l-3-3v-6z" fill="#A7A7A7"/>
<path transform="translate(1338,927)" d="m0 0 2 1v2h7l-2 4-8 7-2-1 3-6z" fill="#DFDFDF"/>
<path transform="translate(822,804)" d="m0 0 5 1 1 2v24l-3-1v-24l-3-1z" fill="#B2B2B2"/>
<path transform="translate(1e3 711)" d="m0 0h1v46h-1l-1-32-1-12h2z" fill="#AFAFAF"/>
<path transform="translate(855,698)" d="m0 0h2l3 3 9 1 3 1-1 1h-11l-2 4-2 1-2-3v-7z" fill="#B0B0B0"/>
<path transform="translate(912,642)" d="m0 0 6 5 1 8-2 1-2-4-8-6z" fill="#B2B2B2"/>
<path transform="translate(931,699)" d="m0 0 4 2 20 1 1 5-2 2-1-4-10-1h-2l-1 3-4-2z" fill="#AFAFAF"/>
<path transform="translate(948,644)" d="m0 0h2l3 6-1 16h-1l-1-5v-7h-2v-5h-2l1-3h1z" fill="#E9E9E9"/>
<path transform="translate(1094,715)" d="m0 0h2l2 3 2-1-1 6-3 3-9-4 6-3z" fill="#B4B4B4"/>
<path transform="translate(1268,689)" d="m0 0h2l4 12 2 5h-3l-4-4-1-4z" fill="#5A5A5A"/>
<path transform="translate(1006,1210)" d="m0 0h1l1 30h-3v-27z" fill="#B2B2B2"/>
<path transform="translate(1276,917)" d="m0 0 3 3v-2l7 1 1 3-1 2-11 1z" fill="#BEBEBE"/>
<path transform="translate(1309,873)" d="m0 0 7 6 4 2v4l-7-1v-3l-7-2z" fill="#AFAFAF"/>
<path transform="translate(1084,694)" d="m0 0 7 2-2 8-1 2-9-9 3-1h2z" fill="#B2B2B2"/>
<path transform="translate(899,1205)" d="m0 0 5 2 1 5-2 4h-5v-9z" fill="#F8F8F8"/>
<path transform="translate(1342,900)" d="m0 0m-21 1h21l1 2-18 2-7-2z" fill="#C2C2C2"/>
<path transform="translate(821,747)" d="m0 0 4 2 4 5 4 3-6 2-4-4-3-2z" fill="#B8B8B8"/>
<path transform="translate(956,634)" d="m0 0 4 2 2 4 1 7-2 16h-1l-2-25z" fill="#B8B8B8"/>
<path transform="translate(1219,794)" d="m0 0 2 1-13 13-5 3 2-5 5-6 5-4z" fill="#AFAFAF"/>
<path transform="translate(1052,735)" d="m0 0h9l-1 4-6 4-1 7h-1z" fill="#ADADAD"/>
<path transform="translate(1303,856)" d="m0 0h7l7 3 1-2 2 6 1 5-5-3-7-7-6-1z" fill="#AFAFAF"/>
<path transform="translate(1056,754)" d="m0 0 11 1 3 2v9l-1 1h-7l4-2 2-7h-10v-3z" fill="#BABABA"/>
<path transform="translate(793,1290)" d="m0 0 2 1 3 8-2 6-1 4h-2z" fill="#595959"/>
<path transform="translate(964,661)" d="m0 0 2 4 5 12 4 1v6l-5-4-6-8-1-5z" fill="#B0B0B0"/>
<path transform="translate(1178,1219)" d="m0 0h2l-1 10 1 7-4 1v-15z" fill="#FCFCFC"/>
<path transform="translate(1096,1172)" d="m0 0 3 4 2 5-4-1v3h-11v-3l9-2z" fill="#B0B0B0"/>
<path transform="translate(1301,1027)" d="m0 0 7 1 5 5v2l-7-1-5-3z" fill="#E8E8E8"/>
<path transform="translate(1271,805)" d="m0 0 4 1 30 1 1-2 2 6-2 3-3-1 2-4-31-1-3-1z" fill="#B1B1B1"/>
<path transform="translate(831,745)" d="m0 0 4 1 9 4v5h-5v-2l-4-2-4-5z" fill="#BDBDBD"/>
<path transform="translate(1084,705)" d="m0 0 4 4-2 4v8h-2l-3-5v-6l2-1z" fill="#B4B4B4"/>
<path transform="translate(1344,1033)" d="m0 0 6 5v5l-3 4h-2l-1-9 1-3-4-1z" fill="#BABABA"/>
<path transform="translate(1233,986)" d="m0 0 3 1 1 7 7 4 1 5-9-6-3-3-1-7z" fill="#595959"/>
<path transform="translate(1274,983)" d="m0 0 6 2 6 1 1-2v6h-8l-4-2z" fill="#B6B6B6"/>
<path transform="translate(1007,753)" d="m0 0 1 4h4l1 8 1 2-5-1-2 2z" fill="#A8A8A8"/>
<path transform="translate(1061,678)" d="m0 0 3 1 1 3-3 2-3-1-1 5-4-2 2-7 5 1z" fill="#F7F7F7"/>
<path transform="translate(945,674)" d="m0 0 2 3 7 9-2 3-6-4-2-7z" fill="#C7C7C7"/>
<path transform="translate(1006,1166)" d="m0 0 2 1v21l-1 9h-1l-1-25z" fill="#BCBCBC"/>
<path transform="translate(1294,1116)" d="m0 0 16 1-4 1 1 5-3-1v-2l-2 2-2-2-8-2-1 2v-3z" fill="#B0B0B0"/>
<path transform="translate(1319,892)" d="m0 0h14v1h7l4 2h-22l-4-2z" fill="#FCFCFC"/>
<path transform="translate(1012,685)" d="m0 0 4 1 2 3v5l-3 2-5-7v-2z" fill="#EDEDED"/>
<path transform="translate(1241,658)" d="m0 0 3 1 1 7 4-3-1 4-4 1-2 9h-1z" fill="#B6B6B6"/>
<path transform="translate(1106,1202)" d="m0 0 4 1 3 6v4h-5l-1-1z" fill="#E6E6E6"/>
<path transform="translate(1291,902)" d="m0 0h1l2 12v4l-2 1-3-5v-11z" fill="#AFAFAF"/>
<path transform="translate(1161,1235)" d="m0 0h2l-1 5-1 1h-12l-4-1v-2l8 1 3 1 1-4z" fill="#9A9A9A"/>
<path transform="translate(1173,1212)" d="m0 0h2l4 4 3 2-4 2-1 2-1 15h-1l-1-20z" fill="#AFAFAF"/>
<path transform="translate(1168,1181)" d="m0 0 4 1 5 2h11l3 1v2h-13l-6-2-4-2z" fill="#595959"/>
<path transform="translate(1256,1033)" d="m0 0 3 1-1 4h-9v-2h-6l2-2z" fill="#AFAFAF"/>
<path transform="translate(1078,701)" d="m0 0 4 1 2 4-1 4h-3v13h-1v-18l1-2h-2z" fill="#E0E0E0"/>
<path transform="translate(1185,686)" d="m0 0 5 1 1 1v5l-6 2-1-7z" fill="#5A5A5A"/>
<path transform="translate(1006,677)" d="m0 0 7 6v3l-4 2-5-6h2z" fill="#B3B3B3"/>
<path transform="translate(1100,1251)" d="m0 0h25v1l-22 1v8l-2 1-1-3z" fill="#B0B0B0"/>
<path transform="translate(1246,1077)" d="m0 0h6l1 2-1 4h-7l-1 2-3-1z" fill="#5C5C5C"/>
<path transform="translate(914,709)" d="m0 0 1 4v4l5 1 4-3-1 6-3 2-4-1-1-3h-2v-7z" fill="#8A8A8A"/>
<path transform="translate(965,618)" d="m0 0h6l-3 2-1 3-7 1h-3l-1-3z" fill="#B5B5B5"/>
<path transform="translate(1292,1152)" d="m0 0h2l2 5v3h3v2h-5l-6-2 1-2z" fill="#B3B3B3"/>
<path transform="translate(1279,1011)" d="m0 0 4 2 7 4v4l-7-1-2-4z" fill="#F3F3F3"/>
<path transform="translate(1278,995)" d="m0 0h6l1 5-7 3h-3l-1-3 2-2h3l1-2z" fill="#929292"/>
<path transform="translate(1287,928)" d="m0 0 4 1 4 3v2l3 2h-8l-3-1z" fill="#AFAFAF"/>
<path transform="translate(1313,920)" d="m0 0 2 1-1 3-11 2-5-2-1-2 5-1 5 1z" fill="#B3B3B3"/>
<path transform="translate(986,805)" d="m0 0h2v10l6-1 2-8h1v7l-3 4-5 1-3-3z" fill="#9F9F9F"/>
<path transform="translate(895,1181)" d="m0 0h5v9l-6-2-1-1v-5z" fill="#BABABA"/>
<path transform="translate(1285,1094)" d="m0 0 2 1-5 5-4 2 1 7-3-2v-8l5-2v-2z" fill="#8D8D8D"/>
<path transform="translate(1047,1217)" d="m0 0h3l1 2 1 9 2 5-4-3-4-2h2z" fill="#BABABA"/>
<path transform="translate(1310,1046)" d="m0 0 3 1v3h2l1 8-7 1 2-5z" fill="#717171"/>
<path transform="translate(1108,793)" d="m0 0h1v5l-5 5-8-1 1-2h7l1-5z" fill="#BEBEBE"/>
<path transform="translate(1026,663)" d="m0 0h1v26h-2l-3-5h2l1-5z" fill="#B0B0B0"/>
<path transform="translate(864,692)" d="m0 0h2l3 5 1 3h-9l1-5z" fill="#CACACA"/>
<path transform="translate(1315,1009)" d="m0 0 4 2 4 5-1 4 2 2-5-1-1-4-3-5z" fill="#F5F5F5"/>
<path transform="translate(1315,839)" d="m0 0 4 2 3 3-1 7-6-6z" fill="#F5F5F5"/>
<path transform="translate(1243,792)" d="m0 0 6 3 2 5 4 6-5-2-4-6-2-1z" fill="#919191"/>
<path transform="translate(1093,1219)" d="m0 0 4 2 10 10-1 3-12-12z" fill="#AFAFAF"/>
<path transform="translate(1072,1225)" d="m0 0 6 5 2 5v3l-3 1-4-9z" fill="#595959"/>
<path transform="translate(1230,1060)" d="m0 0 1 4-16 16v-3l11-11z" fill="#D0D0D0"/>
<path transform="translate(1304,789)" d="m0 0 8 5-3 7-2 1-2-10z" fill="#B6B6B6"/>
<path transform="translate(935,1194)" d="m0 0h4v3l-8 7-7 6 2-4 6-7 3-2z" fill="#C5C5C5"/>
<path transform="translate(831,726)" d="m0 0 5 3 2 4h-8l-1-4z" fill="#B8B8B8"/>
<path transform="translate(1026,717)" d="m0 0h2l4 8 2 3-5 2-3-10z" fill="#B4B4B4"/>
<path transform="translate(1126,1204)" d="m0 0h1l2 8 9 10h-3l-3-1-1-4h-2l-4-7v-5z" fill="#AFAFAF"/>
<path transform="translate(840,955)" d="m0 0h3l3 5 8-1 1-2v3l-5 1v2l-6-1-4-4z" fill="#8E8E8E"/>
<path transform="translate(1230,830)" d="m0 0h1l1 7 5 1 3-3 2-4v6l-4 4-4 1-4-4z" fill="#9F9F9F"/>
<path transform="translate(1168,697)" d="m0 0h4l4 6-3 3-5-5z" fill="#B0B0B0"/>
<path transform="translate(985,1200)" d="m0 0h2v4l7 1-1 3h-10l1-4z" fill="#878787"/>
<path transform="translate(1214,1117)" d="m0 0 4 4h2v7l-4 2-2-9z" fill="#B6B6B6"/>
<path transform="translate(1217,1056)" d="m0 0 2 3-6 7-6 4v-3l8-8z" fill="#B8B8B8"/>
<path transform="translate(1236,1028)" d="m0 0h5l-1 3-6 5h-2l-1-4z" fill="#F0F0F0"/>
<path transform="translate(822,889)" d="m0 0v3l-5 5h-3l1-5z" fill="#595959"/>
<path transform="translate(1213,718)" d="m0 0h2l-1 4-1 1h-7l-2-3 1-1z" fill="#B4B4B4"/>
<path transform="translate(1286,715)" d="m0 0h4l2 4-1 4-8-4v-2z" fill="#B4B4B4"/>
<path transform="translate(1064,1179)" d="m0 0h8v6l-7-1z" fill="#AFAFAF"/>
<path transform="translate(1251,1043)" d="m0 0m-3 1h3l-5 10-2 1v-8l4-1z" fill="#B5B5B5"/>
<path transform="translate(1085,661)" d="m0 0h1l2 8v10l-3-2z" fill="#595959"/>
<path transform="translate(889,840)" d="m0 0h11l14 1v1l-20 1-5-2z" fill="#ACACAC"/>
<path transform="translate(985,701)" d="m0 0 8 1-1 3-4-1v2h-2v6l-2-1v-5z" fill="#AFAFAF"/>
<path transform="translate(1084,677)" d="m0 0h4 2l1 6-4 1-3 3z" fill="#B1B1B1"/>
<path transform="translate(1092,1235)" d="m0 0 4 5-5 1h-11l-2-3 3-1v3l11-2z" fill="#B1B1B1"/>
<path transform="translate(1320,1102)" d="m0 0h2l1 6-6-1-2-1-1 2-2-1 2-4z" fill="#AFAFAF"/>
<path transform="translate(817,936)" d="m0 0 13 3 5 2-4 1-14-2z" fill="#AFAFAF"/>
<path transform="translate(1229,794)" d="m0 0 5 1-4 3-7 5h-2l2-4z" fill="#8C8C8C"/>
<path transform="translate(846,703)" d="m0 0 3 1 3 7-2 4-3-4z" fill="#B5B5B5"/>
<path transform="translate(1161,1212)" d="m0 0h8l-1 4-2 1-7-1z" fill="#B7B7B7"/>
<path transform="translate(1258,808)" d="m0 0 6 1 2 1v2l5 1v1h-9z" fill="#B5B5B5"/>
<path transform="translate(1300,751)" d="m0 0 5 1v5l-2 2h-3z" fill="#B7B7B7"/>
<path transform="translate(900,1203)" d="m0 0h5l-3 1v2l-3 1-1 8-2-1v-9z" fill="#B8B8B8"/>
<path transform="translate(927,1154)" d="m0 0 1 3-3 2h-7l-3-4h10z" fill="#9E9E9E"/>
<path transform="translate(951,1145)" d="m0 0 2 1-1 9-4 3h-7v-1l7-2 2-4z" fill="#979797"/>
<path transform="translate(932,1113)" d="m0 0h17l-3 2-6 1-8-1z" fill="#AFAFAF"/>
<path transform="translate(1312,969)" d="m0 0 3 1v2h-3v5h-2l-1 2-3-2v-2h2l2-4z" fill="#AFAFAF"/>
<path transform="translate(765,931)" d="m0 0h2l2 7 2 2v5l-2 1-3-7z" fill="#F9F9F9"/>
<path transform="translate(847,734)" d="m0 0 4 2 1 4-7 3z" fill="#797979"/>
<path transform="translate(987,1215)" d="m0 0h2v6l-5 4-1-3 2-4h2z" fill="#ADADAD"/>
<path transform="translate(1200,1130)" d="m0 0v3l-7 8-4 1 3-5z" fill="#BABABA"/>
<path transform="translate(845,984)" d="m0 0 6 2v-2l5 1h6l-1 2h-14l-2-1z" fill="#979797"/>
<path transform="translate(1316,936)" d="m0 0 5 1 7 1v3l-8-1-6-2z" fill="#B3B3B3"/>
<path transform="translate(1229,854)" d="m0 0h2v6h9l-1 3-9-1-1-2z" fill="#595959"/>
<path transform="translate(815,784)" d="m0 0 2 1 1 6-2 2h-3v-7z" fill="#F2F2F2"/>
<path transform="translate(891,656)" d="m0 0h2v23h-1v-18h-2l-1-3z" fill="#AFAFAF"/>
<path transform="translate(1216,638)" d="m0 0 5 2-1 5-6-2 1-4z" fill="#BABABA"/>
<path transform="translate(1197,1159)" d="m0 0h7l-2 3-8 1-1 3-1-4z" fill="#595959"/>
<path transform="translate(950,1123)" d="m0 0h1v7l-2 2-6 1 3-5 3-3z" fill="#616161"/>
<path transform="translate(847,978)" d="m0 0 2 4 3 2-1 2-7-1v-5z" fill="#F9F9F9"/>
<path transform="translate(1070,736)" d="m0 0 1 2-2 5-2 1h-6l-2-2h6v-2z" fill="#868686"/>
<path transform="translate(1034,720)" d="m0 0 5 2 2 8-4-2-3-4z" fill="#DCDCDC"/>
<path transform="translate(1180,686)" d="m0 0h2l1 5v5l-3-1v-2l-2-1 1-5z" fill="#616161"/>
<path transform="translate(1138,1223)" d="m0 0 4 2 6 7v3l-5-2 1-4h-2z" fill="#AFAFAF"/>
<path transform="translate(902,1204)" d="m0 0 4 1 4 5-1 4-7-8z" fill="#595959"/>
<path transform="translate(1302,995)" d="m0 0 5 1 2 4-8 2z" fill="#AFAFAF"/>
<path transform="translate(464,880)" d="m0 0h3l3 6-1 2-4-1-2-5z" fill="#BDBDBD"/>
<path transform="translate(1246,850)" d="m0 0 1 4 1 1-1 9-2-1-1-10z" fill="#595959"/>
<path transform="translate(509,835)" d="m0 0 4 4 3 7-2 2-5-10z" fill="#F4F4F4"/>
<path transform="translate(1107,757)" d="m0 0h1v10l-4 3 2-12z" fill="#C5C5C5"/>
<path transform="translate(927,700)" d="m0 0 3 1v2h2l2 4h-3v8h-1l-2-10z" fill="#AFAFAF"/>
<path transform="translate(1231,695)" d="m0 0h7v4l2 1h-2l-1 2-1-2-5-1z" fill="#A9A9A9"/>
<path transform="translate(1240,687)" d="m0 0h2l1 5-3 2v5h-2l-1-5z" fill="#FCFCFC"/>
<path transform="translate(1207,633)" d="m0 0 4 2v4h-4l-2-4z" fill="#BDBDBD"/>
<path transform="translate(912,1220)" d="m0 0h1v5h2l-1 3-4-1-4-4 2-1 4 2z" fill="#595959"/>
<path transform="translate(935,1211)" d="m0 0v3l-6 8-2-2 4-6z" fill="#595959"/>
<path transform="translate(1252,1158)" d="m0 0 9 1-3 4-6-2z" fill="#B6B6B6"/>
<path transform="translate(1219,1094)" d="m0 0h1v13l-4-1 1-8z" fill="#ACACAC"/>
<path transform="translate(1285,1044)" d="m0 0h7l-2 1 1 3-2 3-4-4-4-2z" fill="#B1B1B1"/>
<path transform="translate(993,756)" d="m0 0 6 1-1 4h2v4h-3l-2-6-3-2z" fill="#9D9D9D"/>
<path transform="translate(1176,693)" d="m0 0 4 2 1 5 4 2-3 1-6-6z" fill="#EAEAEA"/>
<path transform="translate(1067,684)" d="m0 0 5 5 1 5-6-2z" fill="#595959"/>
<path transform="translate(942,627)" d="m0 0 4 4 1 5-8-5 1-3z" fill="#AFAFAF"/>
<path transform="translate(1347,1006)" d="m0 0 4 1 1 4-2 2h-3z" fill="#BCBCBC"/>
<path transform="translate(1217,957)" d="m0 0h3l-1 3-6 4-3 1 2-5z" fill="#C6C6C6"/>
<path transform="translate(1253,809)" d="m0 0 4 5 1 5-5-3-3-4 1-2 2 1z" fill="#B1B1B1"/>
<path transform="translate(1021,740)" d="m0 0h2l1 4-7 2-4-2v-2h6l2 1z" fill="#ACACAC"/>
<path transform="translate(1298,736)" d="m0 0 2 1 3 7v3l-3 1-2-7z" fill="#B9B9B9"/>
<path transform="translate(842,708)" d="m0 0 2 2-1 5-4 1v-4z" fill="#B4B4B4"/>
<path transform="translate(993,694)" d="m0 0 2 3-4 2h-7l-1-4 10 1z" fill="#ccc"/>
<path transform="translate(1067,677)" d="m0 0 4 1-1 8-4-4z" fill="#eee"/>
<path transform="translate(955,665)" d="m0 0 5 5 4 8-3-1-6-9z" fill="#AFAFAF"/>
<path transform="translate(1261,1089)" d="m0 0h3l-1 4-2 2-5 1 2-4z" fill="#E3E3E3"/>
<path transform="translate(842,948)" d="m0 0 7 1 5 4-1 3-2-3-9-3z" fill="#AEAEAE"/>
<path transform="translate(442,717)" d="m0 0 3 3 7 12h-3l-7-13z" fill="#C5C5C5"/>
<path transform="translate(873,693)" d="m0 0h1l1 8-4-1-2-6z" fill="#DBDBDB"/>
<path transform="translate(1121,1233)" d="m0 0h2l2 3v4h-4l-1-6z" fill="#AFAFAF"/>
<path transform="translate(1047,1229)" d="m0 0 4 1 3 3 1 5h-3l-3-6z" fill="#595959"/>
<path transform="translate(940,1228)" d="m0 0 5 1 2 2-11 2-1-3z" fill="#BABABA"/>
<path transform="translate(1267,1113)" d="m0 0 2 3 4 1-3 1-2 8h-1z" fill="#AFAFAF"/>
<path transform="translate(1244,1083)" d="m0 0h1v5l-4 2-3-2 3-4 3 1z" fill="#C0C0C0"/>
<path transform="translate(1382,922)" d="m0 0h2l1 5-3 2-4-2z" fill="#B1B1B1"/>
<path transform="translate(1314,871)" d="m0 0 7 2v2l-5 2-3-4z" fill="#AFAFAF"/>
<path transform="translate(1212,812)" d="m0 0v3l-5 10h-1v-8z" fill="#B4B4B4"/>
<path transform="translate(1030,748)" d="m0 0 7 5 8 2v1h-8l-7-6z" fill="#B7B7B7"/>
<path transform="translate(1230,717)" d="m0 0 9 2-1 4-4-1-4-2z" fill="#CECECE"/>
<path transform="translate(1059,683)" d="m0 0h3l-1 8-4-1z" fill="#888"/>
<path transform="translate(943,1204)" d="m0 0h5l1 4 3 1h-7z" fill="#AFAFAF"/>
<path transform="translate(964,1156)" d="m0 0h10v2l-2 1h-6l-2-1z" fill="#C0C0C0"/>
<path transform="translate(970,1140)" d="m0 0 4 2v2h-10l3-3z" fill="#C3C3C3"/>
<path transform="translate(926,1129)" d="m0 0h2l-1 3h-3v2h-5l-2-3 8-1z" fill="#878787"/>
<path transform="translate(890,1019)" d="m0 0h9l-1 3h-8z" fill="#595959"/>
<path transform="translate(1309,885)" d="m0 0 2 1-2 1z" fill="#E2E2E2"/>
<path transform="translate(1258,858)" d="m0 0" fill="#FCFCFC"/>
<path transform="translate(965,811)" d="m0 0" fill="#FCFCFC"/>
</svg>
